#N canvas 664 154 98 237 12;
#X obj 7 11 inlet;
#X obj 11 205 outlet;
#X obj 11 181 atan;
#X obj 11 155 /;
#X obj 8 35 t f f;
#X obj 46 129 sqrt;
#X obj 46 105 + 1;
#X obj 46 82 * -1;
#X obj 46 59 pow 2;
#X connect 0 0 4 0;
#X connect 2 0 1 0;
#X connect 3 0 2 0;
#X connect 4 0 3 0;
#X connect 4 1 8 0;
#X connect 5 0 3 1;
#X connect 6 0 5 0;
#X connect 7 0 6 0;
#X connect 8 0 7 0;
