#N canvas 761 390 442 350 12;
#X obj 7 11 inlet;
#X obj 268 11 loadbang;
#X obj 99 10 inlet;
#X obj 268 59 symbol \$1;
#X obj 268 34 t b b, f 11;
#X obj 176 10 inlet;
#X obj 268 84 s \$0-name;
#X obj 342 84 s \$0-length;
#X obj 99 87 s \$0-name;
#X obj 176 34 s \$0-length;
#X obj 191 286 array set, f 11;
#X obj 265 261 r \$0-name;
#X obj 9 261 list store;
#X obj 9 163 r \$0-length;
#X obj 9 212 until;
#X msg 9 236 append 0;
#X obj 9 310 s \$0-list;
#X obj 191 261 r \$0-list;
#X msg 15 65 prepend \$1;
#X obj 7 91 s \$0-toList;
#X obj 78 236 r \$0-toList;
#X obj 7 35 t b f;
#X obj 99 35 symbol \$1;
#X obj 155 163 array get;
#X obj 342 59 f \$2 100;
#X obj 9 285 list split;
#X obj 9 187 t f f b;
#X obj 215 138 r \$0-name;
#X obj 99 60 t b s;
#X connect 0 0 21 0;
#X connect 1 0 4 0;
#X connect 2 0 22 0;
#X connect 3 0 6 0;
#X connect 4 0 3 0;
#X connect 4 1 24 0;
#X connect 5 0 9 0;
#X connect 11 0 10 2;
#X connect 12 0 25 0;
#X connect 13 0 26 0;
#X connect 14 0 15 0;
#X connect 15 0 12 0;
#X connect 17 0 10 0;
#X connect 18 0 19 0;
#X connect 20 0 12 0;
#X connect 21 0 19 0;
#X connect 21 1 18 0;
#X connect 22 0 28 0;
#X connect 23 0 12 1;
#X connect 24 0 7 0;
#X connect 25 0 16 0;
#X connect 26 0 14 0;
#X connect 26 1 25 1;
#X connect 26 2 12 1;
#X connect 27 0 23 2;
#X connect 28 0 23 0;
#X connect 28 1 8 0;
