#N canvas 463 285 721 240 12;
#X obj 10 8 inlet;
#X obj 325 203 outlet;
#X obj 57 7 inlet;
#X obj 8 58 list split 4;
#X obj 218 58 list split 4;
#X obj 425 58 list split 4;
#X obj 8 80 unpack f f f, f 19;
#X obj 218 80 unpack f f f, f 19;
#X obj 425 80 unpack f f f, f 19;
#X obj 10 31 t b l;
#X obj 190 146 select XYZ YXZ ZXY ZYX YZX XZY, f 46;
#X obj 57 32 symbol \$1;
#X msg 102 7 XYZ;
#X obj 8 103 s \$0-m11;
#N canvas 76 259 559 413 XYZ 0;
#X obj 6 7 inlet;
#X obj 246 381 outlet;
#X obj 227 331 pack f f f;
#X obj 250 356 list;
#X obj 188 109 < 1;
#X obj 188 85 abs;
#X obj 381 187 clip -1 1;
#X obj 51 227 atan2;
#X obj 51 204 * -1;
#X obj 51 251 f;
#X obj 238 270 f;
#X obj 360 250 f;
#X obj 102 253 f;
#X obj 238 247 atan2;
#X obj 238 224 * -1;
#X obj 259 201 t b f;
#X obj 227 202 f;
#X obj 55 142 select 1;
#X obj 188 62 f;
#X msg 270 270 0;
#X obj 119 217 atan2;
#X obj 142 187 t b f;
#X obj 110 188 f;
#X obj 237 163 select 1;
#X obj 6 30 t b b b;
#X obj 381 212 asin;
#X obj 68 12 r \$0-m11;
#X obj 145 13 r \$0-m12;
#X obj 278 14 r \$0-m32;
#X obj 211 13 r \$0-m22;
#X obj 487 14 r \$0-m33;
#X obj 421 14 r \$0-m23;
#X obj 356 14 r \$0-m13;
#X connect 0 0 24 0;
#X connect 2 0 3 1;
#X connect 3 0 1 0;
#X connect 4 0 23 0;
#X connect 4 0 17 0;
#X connect 5 0 4 0;
#X connect 6 0 25 0;
#X connect 7 0 9 1;
#X connect 8 0 7 0;
#X connect 9 0 2 0;
#X connect 10 0 2 2;
#X connect 11 0 2 1;
#X connect 12 0 2 0;
#X connect 13 0 10 1;
#X connect 14 0 13 0;
#X connect 15 0 16 0;
#X connect 15 1 13 1;
#X connect 16 0 14 0;
#X connect 17 0 9 0;
#X connect 17 1 12 0;
#X connect 18 0 5 0;
#X connect 19 0 2 2;
#X connect 20 0 12 1;
#X connect 21 0 22 0;
#X connect 21 1 20 1;
#X connect 22 0 20 0;
#X connect 23 0 10 0;
#X connect 23 1 19 0;
#X connect 24 0 3 0;
#X connect 24 1 18 0;
#X connect 24 2 11 0;
#X connect 25 0 11 1;
#X connect 26 0 15 0;
#X connect 27 0 16 1;
#X connect 28 0 22 1;
#X connect 29 0 21 0;
#X connect 30 0 7 1;
#X connect 31 0 8 0;
#X connect 32 0 6 0;
#X connect 32 0 18 1;
#X restore 191 174 pd XYZ;
#N canvas 662 344 562 413 YXZ 0;
#X obj 6 7 inlet;
#X obj 248 382 outlet;
#X obj 229 332 pack f f f;
#X obj 252 357 list;
#X obj 236 109 < 1;
#X obj 236 85 abs;
#X obj 383 188 clip -1 1;
#X obj 98 231 atan2;
#X obj 98 255 f;
#X obj 240 271 f;
#X obj 362 251 f;
#X obj 149 257 f;
#X obj 240 248 atan2;
#X obj 102 146 select 1;
#X obj 236 62 f;
#X msg 272 271 0;
#X obj 166 221 atan2;
#X obj 189 191 t b f;
#X obj 157 192 f;
#X obj 239 164 select 1;
#X obj 6 30 t b b b;
#X obj 383 213 asin;
#X obj 383 163 * -1;
#X obj 175 166 * -1;
#X obj 70 14 r \$0-m11;
#X obj 135 14 r \$0-m21;
#X obj 200 14 r \$0-m32;
#X obj 275 15 r \$0-m22;
#X obj 417 13 r \$0-m23;
#X obj 481 12 r \$0-m33;
#X obj 353 13 r \$0-m13;
#X connect 0 0 20 0;
#X connect 2 0 3 1;
#X connect 3 0 1 0;
#X connect 4 0 19 0;
#X connect 4 0 13 0;
#X connect 5 0 4 0;
#X connect 6 0 21 0;
#X connect 7 0 8 1;
#X connect 8 0 2 1;
#X connect 9 0 2 2;
#X connect 10 0 2 0;
#X connect 11 0 2 1;
#X connect 12 0 9 1;
#X connect 13 0 8 0;
#X connect 13 1 11 0;
#X connect 14 0 5 0;
#X connect 15 0 2 2;
#X connect 16 0 11 1;
#X connect 17 0 18 0;
#X connect 17 1 16 1;
#X connect 18 0 16 0;
#X connect 19 0 9 0;
#X connect 19 1 15 0;
#X connect 20 0 3 0;
#X connect 20 1 10 0;
#X connect 20 2 14 0;
#X connect 21 0 10 1;
#X connect 22 0 6 0;
#X connect 23 0 18 1;
#X connect 24 0 17 0;
#X connect 25 0 12 0;
#X connect 26 0 23 0;
#X connect 27 0 12 1;
#X connect 28 0 22 0;
#X connect 28 0 14 1;
#X connect 29 0 7 1;
#X connect 30 0 7 0;
#X restore 243 174 pd YXZ;
#N canvas 635 325 565 412 ZXY 0;
#X obj 6 7 inlet;
#X obj 248 368 outlet;
#X obj 229 318 pack f f f;
#X obj 252 343 list;
#X obj 236 95 < 1;
#X obj 236 71 abs;
#X obj 383 174 clip -1 1;
#X obj 98 217 atan2;
#X obj 98 194 * -1;
#X obj 98 241 f;
#X obj 240 257 f;
#X obj 362 237 f;
#X obj 149 243 f;
#X obj 240 234 atan2;
#X obj 240 211 * -1;
#X obj 102 132 select 1;
#X obj 236 48 f;
#X msg 272 257 0;
#X obj 166 207 atan2;
#X obj 189 177 t b f;
#X obj 157 178 f;
#X obj 239 150 select 1;
#X obj 6 30 t b b b;
#X obj 383 199 asin;
#X obj 474 10 r \$0-m33;
#X obj 400 11 r \$0-m32;
#X obj 336 11 r \$0-m22;
#X obj 273 11 r \$0-m12;
#X obj 196 12 r \$0-m31;
#X obj 132 12 r \$0-m21;
#X obj 68 12 r \$0-m11;
#X connect 0 0 22 0;
#X connect 2 0 3 1;
#X connect 3 0 1 0;
#X connect 4 0 21 0;
#X connect 4 0 15 0;
#X connect 5 0 4 0;
#X connect 6 0 23 0;
#X connect 7 0 9 1;
#X connect 8 0 7 0;
#X connect 9 0 2 2;
#X connect 10 0 2 1;
#X connect 11 0 2 0;
#X connect 12 0 2 2;
#X connect 13 0 10 1;
#X connect 14 0 13 0;
#X connect 15 0 9 0;
#X connect 15 1 12 0;
#X connect 16 0 5 0;
#X connect 17 0 2 1;
#X connect 18 0 12 1;
#X connect 19 0 20 0;
#X connect 19 1 18 1;
#X connect 20 0 18 0;
#X connect 21 0 10 0;
#X connect 21 1 17 0;
#X connect 22 0 3 0;
#X connect 22 1 11 0;
#X connect 22 2 16 0;
#X connect 23 0 11 1;
#X connect 24 0 13 1;
#X connect 25 0 6 0;
#X connect 25 0 16 1;
#X connect 26 0 7 1;
#X connect 27 0 8 0;
#X connect 28 0 14 0;
#X connect 29 0 20 1;
#X connect 30 0 19 0;
#X restore 296 174 pd ZXY;
#N canvas 289 340 604 413 ZYX 0;
#X obj 6 7 inlet;
#X obj 258 369 outlet;
#X obj 239 319 pack f f f;
#X obj 262 344 list;
#X obj 247 114 < 1;
#X obj 247 90 abs;
#X obj 394 193 clip -1 1;
#X obj 109 236 atan2;
#X obj 109 260 f;
#X obj 251 276 f;
#X obj 373 256 f;
#X obj 160 262 f;
#X obj 251 253 atan2;
#X obj 113 151 select 1;
#X obj 247 67 f;
#X msg 283 276 0;
#X obj 177 226 atan2;
#X obj 250 169 select 1;
#X obj 6 30 t b b b;
#X obj 394 218 asin;
#X obj 394 164 * -1;
#X obj 126 206 t b f;
#X obj 105 184 f;
#X obj 179 188 * -1;
#X obj 520 29 r \$0-m33;
#X obj 420 29 r \$0-m32;
#X obj 355 29 r \$0-m22;
#X obj 291 29 r \$0-m12;
#X obj 200 29 r \$0-m31;
#X obj 135 29 r \$0-m21;
#X obj 69 29 r \$0-m11;
#X connect 0 0 18 0;
#X connect 2 0 3 1;
#X connect 3 0 1 0;
#X connect 4 0 13 0;
#X connect 4 0 17 0;
#X connect 5 0 4 0;
#X connect 6 0 19 0;
#X connect 7 0 8 1;
#X connect 8 0 2 2;
#X connect 9 0 2 0;
#X connect 10 0 2 1;
#X connect 11 0 2 2;
#X connect 12 0 9 1;
#X connect 13 0 8 0;
#X connect 13 1 11 0;
#X connect 14 0 5 0;
#X connect 15 0 2 0;
#X connect 16 0 11 1;
#X connect 17 0 9 0;
#X connect 17 1 15 0;
#X connect 18 0 3 0;
#X connect 18 1 14 0;
#X connect 18 2 10 0;
#X connect 19 0 10 1;
#X connect 20 0 6 0;
#X connect 21 0 22 0;
#X connect 21 1 7 1;
#X connect 22 0 7 0;
#X connect 23 0 16 0;
#X connect 24 0 12 1;
#X connect 25 0 12 0;
#X connect 26 0 16 1;
#X connect 27 0 23 0;
#X connect 28 0 20 0;
#X connect 28 0 14 1;
#X connect 29 0 22 1;
#X connect 30 0 21 0;
#X restore 349 173 pd ZYX;
#N canvas 103 358 569 413 YZX 0;
#X obj 6 7 inlet;
#X obj 280 376 outlet;
#X obj 261 326 pack f f f;
#X obj 284 351 list;
#X obj 268 103 < 1;
#X obj 268 79 abs;
#X obj 415 182 clip -1 1;
#X obj 130 225 atan2;
#X obj 126 175 * -1;
#X obj 130 249 f;
#X obj 272 265 f;
#X obj 394 245 f;
#X obj 181 251 f;
#X obj 272 242 atan2;
#X obj 272 219 * -1;
#X obj 293 196 t b f;
#X obj 261 197 f;
#X obj 134 140 select 1;
#X obj 268 56 f;
#X msg 304 265 0;
#X obj 198 215 atan2;
#X obj 271 158 select 1;
#X obj 6 30 t b b b;
#X obj 415 207 asin;
#X obj 75 10 r \$0-m11;
#X obj 495 10 r \$0-m33;
#X obj 429 10 r \$0-m23;
#X obj 364 10 r \$0-m13;
#X obj 139 10 r \$0-m21;
#X obj 203 10 r \$0-m31;
#X obj 278 10 r \$0-m22;
#X obj 139 200 t b f;
#X obj 107 201 f;
#X connect 0 0 22 0;
#X connect 2 0 3 1;
#X connect 3 0 1 0;
#X connect 4 0 17 0;
#X connect 4 0 21 0;
#X connect 5 0 4 0;
#X connect 6 0 23 0;
#X connect 7 0 9 1;
#X connect 8 0 32 1;
#X connect 9 0 2 1;
#X connect 10 0 2 0;
#X connect 11 0 2 2;
#X connect 12 0 2 1;
#X connect 13 0 10 1;
#X connect 14 0 13 0;
#X connect 15 0 16 0;
#X connect 15 1 13 1;
#X connect 16 0 14 0;
#X connect 17 0 9 0;
#X connect 17 1 12 0;
#X connect 18 0 5 0;
#X connect 19 0 2 0;
#X connect 20 0 12 1;
#X connect 21 0 10 0;
#X connect 21 1 19 0;
#X connect 22 0 3 0;
#X connect 22 1 18 0;
#X connect 22 2 11 0;
#X connect 23 0 11 1;
#X connect 24 0 31 0;
#X connect 25 0 20 1;
#X connect 26 0 16 1;
#X connect 27 0 20 0;
#X connect 28 0 6 0;
#X connect 28 0 18 1;
#X connect 29 0 8 0;
#X connect 30 0 15 0;
#X connect 31 0 32 0;
#X connect 31 1 7 1;
#X connect 32 0 7 0;
#X restore 402 173 pd YZX;
#N canvas 350 226 555 413 XZY 0;
#X obj 6 7 inlet;
#X obj 255 381 outlet;
#X obj 236 331 pack f f f;
#X obj 259 356 list;
#X obj 243 108 < 1;
#X obj 243 84 abs;
#X obj 390 187 clip -1 1;
#X obj 105 230 atan2;
#X obj 105 254 f;
#X obj 247 270 f;
#X obj 369 250 f;
#X obj 165 250 f;
#X obj 247 247 atan2;
#X obj 273 216 t b f;
#X obj 241 217 f;
#X obj 109 145 select 1;
#X obj 243 61 f;
#X msg 279 270 0;
#X obj 182 214 atan2;
#X obj 246 163 select 1;
#X obj 6 30 t b b b;
#X obj 390 212 asin;
#X obj 68 12 r \$0-m11;
#X obj 140 12 r \$0-m12;
#X obj 273 13 r \$0-m32;
#X obj 206 12 r \$0-m22;
#X obj 477 12 r \$0-m33;
#X obj 411 12 r \$0-m23;
#X obj 346 12 r \$0-m13;
#X obj 391 162 * -1;
#X obj 127 199 t b f;
#X obj 95 200 f;
#X obj 173 185 * -1;
#X connect 0 0 20 0;
#X connect 2 0 3 1;
#X connect 3 0 1 0;
#X connect 4 0 19 0;
#X connect 4 0 15 0;
#X connect 5 0 4 0;
#X connect 6 0 21 0;
#X connect 7 0 8 1;
#X connect 8 0 2 0;
#X connect 9 0 2 1;
#X connect 10 0 2 2;
#X connect 11 0 2 0;
#X connect 12 0 9 1;
#X connect 13 0 14 0;
#X connect 13 1 12 1;
#X connect 14 0 12 0;
#X connect 15 0 8 0;
#X connect 15 1 11 0;
#X connect 16 0 5 0;
#X connect 17 0 2 1;
#X connect 18 0 11 1;
#X connect 19 0 9 0;
#X connect 19 1 17 0;
#X connect 20 0 3 0;
#X connect 20 1 16 0;
#X connect 20 2 10 0;
#X connect 21 0 10 1;
#X connect 22 0 13 0;
#X connect 23 0 29 0;
#X connect 23 0 16 1;
#X connect 24 0 31 1;
#X connect 25 0 30 0;
#X connect 26 0 18 1;
#X connect 27 0 32 0;
#X connect 28 0 14 1;
#X connect 29 0 6 0;
#X connect 30 0 31 0;
#X connect 30 1 7 1;
#X connect 31 0 7 0;
#X connect 32 0 18 0;
#X restore 455 173 pd XZY;
#X obj 218 104 s \$0-m12;
#X obj 283 105 s \$0-m22;
#X obj 348 105 s \$0-m32;
#X obj 425 104 s \$0-m13;
#X obj 490 104 s \$0-m23;
#X obj 555 104 s \$0-m33;
#X obj 73 103 s \$0-m21;
#X obj 138 103 s \$0-m31;
#X obj 509 173 s \$0-defaultOrder;
#X obj 138 7 r \$0-defaultOrder;
#X connect 0 0 9 0;
#X connect 2 0 11 0;
#X connect 3 0 6 0;
#X connect 3 1 4 0;
#X connect 4 0 7 0;
#X connect 4 1 5 0;
#X connect 5 0 8 0;
#X connect 6 0 13 0;
#X connect 6 1 26 0;
#X connect 6 2 27 0;
#X connect 7 0 20 0;
#X connect 7 1 21 0;
#X connect 7 2 22 0;
#X connect 8 0 23 0;
#X connect 8 1 24 0;
#X connect 8 2 25 0;
#X connect 9 0 11 0;
#X connect 9 1 3 0;
#X connect 10 0 14 0;
#X connect 10 1 15 0;
#X connect 10 2 16 0;
#X connect 10 3 17 0;
#X connect 10 4 18 0;
#X connect 10 5 19 0;
#X connect 10 6 28 0;
#X connect 11 0 10 0;
#X connect 12 0 11 0;
#X connect 14 0 1 0;
#X connect 15 0 1 0;
#X connect 16 0 1 0;
#X connect 17 0 1 0;
#X connect 18 0 1 0;
#X connect 19 0 1 0;
#X connect 29 0 12 0;
