#N canvas 48 62 562 225 12;
#X obj 15 6 inlet;
#X obj 15 193 outlet;
#X obj 306 117 loadbang;
#X obj 306 165 f \$1;
#X obj 365 165 f \$2;
#X obj 425 166 f \$3;
#X obj 485 166 f \$4;
#X obj 306 141 t b b b b, f 26;
#X obj 15 168 pack f f f f, f 17;
#N canvas 715 49 594 286 w 0;
#X obj 96 116 *;
#X obj 225 118 *;
#X obj 346 121 *;
#X obj 481 119 *;
#X obj 481 142 * -1;
#X obj 346 145 * -1;
#X obj 225 143 * -1;
#X obj 422 191 +;
#X obj 150 191 +;
#X obj 287 228 +;
#X obj 6 7 inlet;
#X obj 277 251 outlet;
#X obj 60 9 r \$0-aw;
#X obj 118 9 r \$0-bw;
#X obj 186 10 r \$0-ax;
#X obj 244 10 r \$0-bx;
#X obj 449 10 r \$0-az;
#X obj 507 10 r \$0-bz;
#X obj 374 10 r \$0-by;
#X obj 316 10 r \$0-ay;
#X obj 6 44 t b b b b;
#X obj 76 90 f;
#X obj 193 91 f;
#X obj 320 89 f;
#X obj 455 89 f;
#X connect 0 0 8 0;
#X connect 1 0 6 0;
#X connect 2 0 5 0;
#X connect 3 0 4 0;
#X connect 4 0 7 1;
#X connect 5 0 7 0;
#X connect 6 0 8 1;
#X connect 7 0 9 1;
#X connect 8 0 9 0;
#X connect 9 0 11 0;
#X connect 10 0 20 0;
#X connect 12 0 21 1;
#X connect 13 0 0 1;
#X connect 14 0 22 1;
#X connect 15 0 1 1;
#X connect 16 0 24 1;
#X connect 17 0 3 1;
#X connect 18 0 2 1;
#X connect 19 0 23 1;
#X connect 20 0 21 0;
#X connect 20 1 22 0;
#X connect 20 2 23 0;
#X connect 20 3 24 0;
#X connect 21 0 0 0;
#X connect 22 0 1 0;
#X connect 23 0 2 0;
#X connect 24 0 3 0;
#X restore 15 144 pd w;
#N canvas 10 288 592 304 x 0;
#X obj 96 116 *;
#X obj 225 118 *;
#X obj 346 121 *;
#X obj 481 119 *;
#X obj 481 142 * -1;
#X obj 422 191 +;
#X obj 150 191 +;
#X obj 287 228 +;
#X obj 6 7 inlet;
#X obj 277 251 outlet;
#X obj 118 9 r \$0-bw;
#X obj 449 10 r \$0-az;
#X obj 316 10 r \$0-ay;
#X obj 6 37 t b b b b;
#X obj 76 90 f;
#X obj 193 91 f;
#X obj 320 89 f;
#X obj 455 89 f;
#X obj 60 9 r \$0-ax;
#X obj 186 10 r \$0-aw;
#X obj 244 10 r \$0-bx;
#X obj 374 10 r \$0-bz;
#X obj 507 10 r \$0-by;
#X connect 0 0 6 0;
#X connect 1 0 6 1;
#X connect 2 0 5 0;
#X connect 3 0 4 0;
#X connect 4 0 5 1;
#X connect 5 0 7 1;
#X connect 6 0 7 0;
#X connect 7 0 9 0;
#X connect 8 0 13 0;
#X connect 10 0 0 1;
#X connect 11 0 17 1;
#X connect 12 0 16 1;
#X connect 13 0 14 0;
#X connect 13 1 15 0;
#X connect 13 2 16 0;
#X connect 13 3 17 0;
#X connect 14 0 0 0;
#X connect 15 0 1 0;
#X connect 16 0 2 0;
#X connect 17 0 3 0;
#X connect 18 0 14 1;
#X connect 19 0 15 1;
#X connect 20 0 1 1;
#X connect 21 0 2 1;
#X connect 22 0 3 1;
#X restore 53 144 pd x;
#N canvas 603 349 590 294 y 0;
#X obj 96 116 *;
#X obj 225 118 *;
#X obj 346 121 *;
#X obj 481 119 *;
#X obj 481 142 * -1;
#X obj 422 191 +;
#X obj 150 191 +;
#X obj 287 228 +;
#X obj 6 7 inlet;
#X obj 277 251 outlet;
#X obj 118 9 r \$0-bw;
#X obj 6 37 t b b b b;
#X obj 76 90 f;
#X obj 193 91 f;
#X obj 320 89 f;
#X obj 455 89 f;
#X obj 186 10 r \$0-aw;
#X obj 60 9 r \$0-ay;
#X obj 244 10 r \$0-by;
#X obj 316 10 r \$0-az;
#X obj 374 10 r \$0-bx;
#X obj 449 10 r \$0-ax;
#X obj 507 10 r \$0-bz;
#X connect 0 0 6 0;
#X connect 1 0 6 1;
#X connect 2 0 5 0;
#X connect 3 0 4 0;
#X connect 4 0 5 1;
#X connect 5 0 7 1;
#X connect 6 0 7 0;
#X connect 7 0 9 0;
#X connect 8 0 11 0;
#X connect 10 0 0 1;
#X connect 11 0 12 0;
#X connect 11 1 13 0;
#X connect 11 2 14 0;
#X connect 11 3 15 0;
#X connect 12 0 0 0;
#X connect 13 0 1 0;
#X connect 14 0 2 0;
#X connect 15 0 3 0;
#X connect 16 0 13 1;
#X connect 17 0 12 1;
#X connect 18 0 1 1;
#X connect 19 0 14 1;
#X connect 20 0 2 1;
#X connect 21 0 15 1;
#X connect 22 0 3 1;
#X restore 92 144 pd y;
#N canvas 809 412 594 292 z 0;
#X obj 96 116 *;
#X obj 225 118 *;
#X obj 346 121 *;
#X obj 481 119 *;
#X obj 481 142 * -1;
#X obj 422 191 +;
#X obj 150 191 +;
#X obj 287 228 +;
#X obj 6 7 inlet;
#X obj 277 251 outlet;
#X obj 118 9 r \$0-bw;
#X obj 6 37 t b b b b;
#X obj 76 90 f;
#X obj 193 91 f;
#X obj 320 89 f;
#X obj 455 89 f;
#X obj 186 10 r \$0-aw;
#X obj 60 9 r \$0-az;
#X obj 244 10 r \$0-bz;
#X obj 316 10 r \$0-ax;
#X obj 374 10 r \$0-by;
#X obj 449 10 r \$0-ay;
#X obj 507 10 r \$0-bx;
#X connect 0 0 6 0;
#X connect 1 0 6 1;
#X connect 2 0 5 0;
#X connect 3 0 4 0;
#X connect 4 0 5 1;
#X connect 5 0 7 1;
#X connect 6 0 7 0;
#X connect 7 0 9 0;
#X connect 8 0 11 0;
#X connect 10 0 0 1;
#X connect 11 0 12 0;
#X connect 11 1 13 0;
#X connect 11 2 14 0;
#X connect 11 3 15 0;
#X connect 12 0 0 0;
#X connect 13 0 1 0;
#X connect 14 0 2 0;
#X connect 15 0 3 0;
#X connect 16 0 13 1;
#X connect 17 0 12 1;
#X connect 18 0 1 1;
#X connect 19 0 14 1;
#X connect 20 0 2 1;
#X connect 21 0 15 1;
#X connect 22 0 3 1;
#X restore 131 144 pd z;
#X obj 47 82 s \$0-aw;
#X obj 15 30 t b l;
#X obj 47 57 unpack f f f f, f 26;
#X obj 106 82 s \$0-ax;
#X obj 166 82 s \$0-ay;
#X obj 226 82 s \$0-az;
#X obj 15 117 t b b b b, f 17;
#X obj 306 188 s \$0-bw;
#X obj 365 188 s \$0-bx;
#X obj 425 188 s \$0-by;
#X obj 485 188 s \$0-bz;
#X obj 306 12 inlet;
#X obj 306 37 unpack f f f f, f 26;
#X obj 306 61 s \$0-bw;
#X obj 365 61 s \$0-bx;
#X obj 425 61 s \$0-by;
#X obj 485 61 s \$0-bz;
#X connect 0 0 14 0;
#X connect 2 0 7 0;
#X connect 3 0 20 0;
#X connect 4 0 21 0;
#X connect 5 0 22 0;
#X connect 6 0 23 0;
#X connect 7 0 3 0;
#X connect 7 1 4 0;
#X connect 7 2 5 0;
#X connect 7 3 6 0;
#X connect 8 0 1 0;
#X connect 9 0 8 0;
#X connect 10 0 8 1;
#X connect 11 0 8 2;
#X connect 12 0 8 3;
#X connect 14 0 19 0;
#X connect 14 1 15 0;
#X connect 15 0 13 0;
#X connect 15 1 16 0;
#X connect 15 2 17 0;
#X connect 15 3 18 0;
#X connect 19 0 9 0;
#X connect 19 1 10 0;
#X connect 19 2 11 0;
#X connect 19 3 12 0;
#X connect 24 0 25 0;
#X connect 25 0 26 0;
#X connect 25 1 27 0;
#X connect 25 2 28 0;
#X connect 25 3 29 0;
