#N canvas 778 149 270 199 12;
#X obj 7 11 inlet;
#X obj 7 164 outlet;
#X obj 127 11 loadbang;
#X obj 127 35 symbol \$1;
#X obj 127 61 select b;
#X obj 198 37 inlet;
#X obj 198 61 select 1;
#X obj 39 86 %;
#X msg 57 36 2;
#X obj 57 59 pow 8;
#X obj 57 11 loadbang;
#X obj 7 86 div;
#X obj 7 139 rearrangeVector;
#X obj 7 115 pack f f;
#X msg 158 97 1 2;
#X msg 193 97 2 1;
#X obj 7 37 t f f;
#X connect 0 0 16 0;
#X connect 2 0 3 0;
#X connect 3 0 4 0;
#X connect 4 0 14 0;
#X connect 4 1 15 0;
#X connect 5 0 6 0;
#X connect 6 0 14 0;
#X connect 6 1 15 0;
#X connect 7 0 13 1;
#X connect 8 0 9 0;
#X connect 9 0 7 1;
#X connect 9 0 11 1;
#X connect 10 0 8 0;
#X connect 11 0 13 0;
#X connect 12 0 1 0;
#X connect 13 0 12 0;
#X connect 14 0 12 1;
#X connect 15 0 12 1;
#X connect 16 0 11 0;
#X connect 16 1 7 0;
