#N canvas 1018 211 324 106 12;
#X floatatom 13 71 11 0 0 0 - - -;
#X obj 108 70 print rest;
#X obj 138 17 tgl 15 0 empty empty big_endian? 17 7 0 10 -262144 -1
-1 0 1;
#X text 121 42 b big endian;
#X msg 13 14 194 200 0 0;
#X obj 13 42 parseFloat32;
#X connect 2 0 5 1;
#X connect 4 0 5 0;
#X connect 5 0 0 0;
#X connect 5 1 1 0;
