#N canvas 822 251 221 106 12;
#X floatatom 13 71 5 0 0 0 - - -;
#X obj 87 70 print rest;
#X obj 87 18 tgl 15 0 empty empty big_endian 17 7 0 10 -262144 -1 -1
0 1;
#X obj 13 42 parseUint16;
#X text 101 42 b big endian;
#X msg 13 15 0 1;
#X connect 2 0 3 1;
#X connect 3 0 0 0;
#X connect 3 1 1 0;
#X connect 5 0 3 0;
