#N canvas 638 181 340 405 12;
#X obj 9 8 inlet;
#X obj 19 373 outlet;
#X obj 136 370 outlet;
#X obj 166 7 loadbang;
#X obj 161 60 symbol \$1;
#X obj 104 9 inlet;
#X obj 233 60 symbol \$2;
#X obj 166 31 t b b;
#X obj 185 87 select b q;
#X obj 20 254 parseInt16;
#X obj 9 101 until;
#X obj 9 129 f;
#X obj 47 129 + 1;
#X obj 92 128 sel 0;
#X obj 136 340 list;
#X obj 92 156 t b b b;
#X obj 20 223 list store;
#X obj 9 36 t b l b;
#X msg 20 291 append \$1;
#X obj 11 172 t b;
#X obj 19 329 list store;
#X msg 185 114 1;
#X msg 223 113 5;
#X obj 47 155 mod 4;
#X connect 0 0 17 0;
#X connect 3 0 7 0;
#X connect 4 0 8 0;
#X connect 5 0 9 1;
#X connect 6 0 8 0;
#X connect 7 0 6 0;
#X connect 7 1 4 0;
#X connect 8 0 21 0;
#X connect 8 1 22 0;
#X connect 9 0 18 0;
#X connect 9 1 14 1;
#X connect 9 1 16 1;
#X connect 10 0 11 0;
#X connect 11 0 12 0;
#X connect 11 0 19 0;
#X connect 12 0 23 0;
#X connect 13 0 15 0;
#X connect 14 0 2 0;
#X connect 15 0 14 0;
#X connect 15 1 20 0;
#X connect 15 2 10 1;
#X connect 16 0 9 0;
#X connect 17 0 10 0;
#X connect 17 1 16 1;
#X connect 17 2 20 1;
#X connect 18 0 20 0;
#X connect 19 0 16 0;
#X connect 20 0 1 0;
#X connect 21 0 9 1;
#X connect 22 0 23 1;
#X connect 23 0 11 1;
#X connect 23 0 13 0;
