#N canvas 481 25 515 716 12;
#X obj 39 9 inlet;
#X obj 155 675 outlet;
#X obj 161 8 loadbang;
#X obj 161 32 symbol \$1;
#X obj 161 57 select b;
#X obj 232 33 inlet;
#X obj 232 57 select 1;
#X obj 156 618 * 1;
#X msg 26 308 -1;
#X msg 62 308 1;
#X msg 161 83 1 2 3 4;
#X msg 232 82 4 3 2 1;
#X obj 39 105 rearrangeVector;
#X obj 71 151 unpack f f f f, f 26;
#X obj 26 283 select 1;
#X obj 71 176 s \$0-b1;
#X obj 26 233 r \$0-b1;
#X obj 130 176 s \$0-b2;
#X obj 190 176 s \$0-b3;
#X obj 250 176 s \$0-b4;
#X obj 202 348 + 0;
#X obj 220 234 r \$0-b2;
#X obj 129 258 % 128;
#X obj 129 233 r \$0-b1;
#X obj 26 258 div 128;
#X obj 202 406 s \$0-exponent;
#X obj 26 363 s \$0-sign;
#X obj 174 590 r \$0-sign;
#X obj 193 512 r \$0-exponent;
#X msg 159 538 2;
#X obj 159 564 pow;
#X obj 141 590 *;
#X obj 354 476 s \$0-mantissa;
#X obj 316 234 r \$0-b2;
#X obj 376 234 r \$0-b3;
#X obj 436 234 r \$0-b4;
#X obj 418 308 +;
#X obj 400 342 +;
#X obj 146 484 r \$0-mantissa;
#X obj 266 675 outlet;
#X obj 39 37 list split 4;
#X obj 266 650 list;
#X obj 291 625 r \$0-rest;
#X obj 156 648 t b f;
#X obj 79 63 s \$0-rest;
#X obj 127 564 f;
#X obj 44 335 f;
#X obj 193 538 t b f;
#X obj 39 128 t b l;
#X obj 18 151 s \$0-b;
#X obj 92 485 r \$0-b;
#X obj 316 263 % 128;
#X obj 191 319 f;
#X obj 233 348 f;
#X obj 129 364 select 1;
#X obj 129 338 > 0;
#X obj 129 311 t f f;
#X obj 202 374 - 127;
#X obj 400 446 + 1;
#X obj 400 420 *;
#X obj 438 342 loadbang;
#X msg 438 369 2;
#X obj 438 393 pow -23;
#X obj 316 288 << 16;
#X obj 376 263 << 8;
#X obj 129 284 << 1;
#X obj 220 259 div 127;
#X connect 0 0 40 0;
#X connect 2 0 3 0;
#X connect 3 0 4 0;
#X connect 4 0 10 0;
#X connect 4 1 11 0;
#X connect 5 0 6 0;
#X connect 6 0 10 0;
#X connect 6 1 11 0;
#X connect 7 0 43 0;
#X connect 8 0 46 0;
#X connect 9 0 46 0;
#X connect 10 0 12 1;
#X connect 11 0 12 1;
#X connect 12 0 48 0;
#X connect 13 0 15 0;
#X connect 13 1 17 0;
#X connect 13 2 18 0;
#X connect 13 3 19 0;
#X connect 14 0 8 0;
#X connect 14 1 9 0;
#X connect 16 0 24 0;
#X connect 20 0 57 0;
#X connect 21 0 66 0;
#X connect 22 0 65 0;
#X connect 23 0 22 0;
#X connect 24 0 14 0;
#X connect 27 0 7 1;
#X connect 28 0 47 0;
#X connect 29 0 30 0;
#X connect 30 0 31 1;
#X connect 31 0 7 0;
#X connect 33 0 51 0;
#X connect 34 0 64 0;
#X connect 35 0 36 1;
#X connect 36 0 37 1;
#X connect 37 0 59 0;
#X connect 38 0 45 1;
#X connect 40 0 12 0;
#X connect 40 1 44 0;
#X connect 41 0 39 0;
#X connect 42 0 41 1;
#X connect 43 0 41 0;
#X connect 43 1 1 0;
#X connect 45 0 31 0;
#X connect 46 0 26 0;
#X connect 47 0 29 0;
#X connect 47 1 30 1;
#X connect 48 0 49 0;
#X connect 48 1 13 0;
#X connect 50 0 45 0;
#X connect 51 0 63 0;
#X connect 52 0 20 0;
#X connect 53 0 57 0;
#X connect 54 0 52 0;
#X connect 54 1 53 0;
#X connect 55 0 54 0;
#X connect 56 0 55 0;
#X connect 56 1 53 1;
#X connect 56 1 52 1;
#X connect 57 0 25 0;
#X connect 58 0 32 0;
#X connect 59 0 58 0;
#X connect 60 0 61 0;
#X connect 61 0 62 0;
#X connect 62 0 59 1;
#X connect 63 0 37 0;
#X connect 64 0 36 0;
#X connect 65 0 56 0;
#X connect 66 0 20 1;
