#N canvas 610 169 231 106 12;
#X floatatom 13 71 10 0 0 0 - - -;
#X obj 87 70 print rest;
#X obj 137 18 tgl 15 0 empty empty big_endian? 17 7 0 10 -262144 -1
-1 0 1;
#X text 112 42 b big endian;
#X obj 13 42 parseUint32;
#X msg 13 15 1 1 1 1 1 2 3;
#X connect 2 0 4 1;
#X connect 4 0 0 0;
#X connect 4 1 1 0;
#X connect 5 0 4 0;
