#N canvas 867 180 279 398 12;
#X obj 7 11 inlet;
#X obj 60 362 outlet;
#X obj 6 337 outlet;
#X obj 60 338 list;
#X obj 134 8 loadbang;
#X obj 134 32 symbol \$1;
#X obj 134 58 select b;
#X obj 32 309 t b f;
#X obj 205 34 inlet;
#X obj 205 58 select 1;
#X obj 32 270 +;
#X obj 47 59 s \$0-rest;
#X obj 85 309 r \$0-rest;
#X obj 32 143 rearrangeVector;
#X msg 141 91 1 2 3 4;
#X msg 206 91 4 3 2 1;
#X obj 32 170 unpack f f f f, f 21;
#X obj 158 232 +;
#X obj 128 201 << 8;
#X obj 80 201 << 16;
#X obj 80 251 +;
#X obj 7 35 list split 4;
#X obj 32 201 << 24;
#X connect 0 0 21 0;
#X connect 3 0 1 0;
#X connect 4 0 5 0;
#X connect 5 0 6 0;
#X connect 6 0 14 0;
#X connect 6 1 15 0;
#X connect 7 0 3 0;
#X connect 7 1 2 0;
#X connect 8 0 9 0;
#X connect 9 0 14 0;
#X connect 9 1 15 0;
#X connect 10 0 7 0;
#X connect 12 0 3 1;
#X connect 13 0 16 0;
#X connect 14 0 13 1;
#X connect 15 0 13 1;
#X connect 16 0 22 0;
#X connect 16 1 19 0;
#X connect 16 2 18 0;
#X connect 16 3 17 1;
#X connect 17 0 20 1;
#X connect 18 0 17 0;
#X connect 19 0 20 0;
#X connect 20 0 10 1;
#X connect 21 0 13 0;
#X connect 21 1 11 0;
#X connect 22 0 10 0;
