#N canvas 902 225 221 106 12;
#X floatatom 13 71 8 0 0 0 - - -;
#X obj 87 70 print rest;
#X obj 79 18 tgl 15 0 empty empty big_endian? 17 7 0 10 -262144 -1
-1 0 1;
#X text 112 42 b big endian;
#X obj 13 42 parseInt16;
#X msg 13 15 156 255;
#X connect 2 0 4 1;
#X connect 4 0 0 0;
#X connect 4 1 1 0;
#X connect 5 0 4 0;
