#N canvas 450 245 275 337 12;
#X obj 7 11 inlet;
#X obj 59 306 outlet;
#X obj 5 281 outlet;
#X obj 7 35 list split 2;
#X obj 59 282 list;
#X obj 134 8 loadbang;
#X obj 134 32 symbol \$1;
#X obj 134 58 select b;
#X obj 31 253 t b f;
#X obj 205 34 inlet;
#X obj 205 58 select 1;
#X obj 31 230 +;
#X obj 47 59 s \$0-rest;
#X obj 84 257 r \$0-rest;
#X obj 7 137 rearrangeVector;
#X msg 165 94 1 2;
#X msg 200 94 2 1;
#X obj 7 164 unpack f f;
#X obj 7 195 << 8;
#X connect 0 0 3 0;
#X connect 3 0 14 0;
#X connect 3 1 12 0;
#X connect 4 0 1 0;
#X connect 5 0 6 0;
#X connect 6 0 7 0;
#X connect 7 0 15 0;
#X connect 7 1 16 0;
#X connect 8 0 4 0;
#X connect 8 1 2 0;
#X connect 9 0 10 0;
#X connect 10 0 15 0;
#X connect 10 1 16 0;
#X connect 11 0 8 0;
#X connect 13 0 4 1;
#X connect 14 0 17 0;
#X connect 15 0 14 1;
#X connect 16 0 14 1;
#X connect 17 0 18 0;
#X connect 17 1 11 1;
#X connect 18 0 11 0;
