#N canvas 305 146 272 556 12;
#X obj 7 11 inlet;
#X obj 81 526 outlet;
#X obj 27 501 outlet;
#X obj 7 35 list split 2;
#X obj 81 502 list;
#X obj 129 8 loadbang;
#X obj 129 32 symbol \$1;
#X obj 129 58 select b;
#X obj 53 473 t b f;
#X obj 200 34 inlet;
#X obj 200 58 select 1;
#X obj 7 164 unpack f f;
#X obj 53 373 +;
#X obj 47 59 s \$0-rest;
#X obj 106 477 r \$0-rest;
#X obj 71 421 *;
#X msg 146 286 2;
#X obj 146 308 pow 15;
#X obj 146 263 loadbang;
#X obj 53 445 -;
#X obj 10 290 t f f;
#X obj 10 316 mod;
#X obj 71 397 div;
#X obj 7 135 rearrangeVector;
#X msg 160 89 1 2;
#X msg 195 89 2 1;
#X obj 10 265 << 8;
#X connect 0 0 3 0;
#X connect 3 0 23 0;
#X connect 3 1 13 0;
#X connect 4 0 1 0;
#X connect 5 0 6 0;
#X connect 6 0 7 0;
#X connect 7 0 24 0;
#X connect 7 1 25 0;
#X connect 8 0 4 0;
#X connect 8 1 2 0;
#X connect 9 0 10 0;
#X connect 10 0 24 0;
#X connect 10 1 25 0;
#X connect 11 0 26 0;
#X connect 11 1 12 1;
#X connect 12 0 19 0;
#X connect 14 0 4 1;
#X connect 15 0 19 1;
#X connect 16 0 17 0;
#X connect 17 0 15 1;
#X connect 17 0 21 1;
#X connect 17 0 22 1;
#X connect 18 0 16 0;
#X connect 19 0 8 0;
#X connect 20 0 21 0;
#X connect 20 1 22 0;
#X connect 21 0 12 0;
#X connect 22 0 15 0;
#X connect 23 0 11 0;
#X connect 24 0 23 1;
#X connect 25 0 23 1;
#X connect 26 0 20 0;
