#N canvas 48 416 305 106 12;
#X floatatom 13 71 11 0 0 0 - - -;
#X obj 108 70 print rest;
#X obj 215 16 tgl 15 0 empty empty big_endian? 17 7 0 10 -262144 -1
-1 0 1;
#X text 121 42 b big endian;
#X obj 13 42 parseFloat64;
#X msg 13 14 16 35 132 71 27 199 241 191;
#X connect 2 0 4 1;
#X connect 4 0 0 0;
#X connect 4 1 1 0;
#X connect 5 0 4 0;
