#N canvas 411 25 763 758 12;
#X obj 39 8 inlet;
#X obj 75 725 outlet;
#X obj 162 8 loadbang;
#X obj 162 32 symbol \$1;
#X obj 162 57 select b;
#X obj 284 33 inlet;
#X obj 284 57 select 1;
#X obj 76 668 * 1;
#X msg 26 358 -1;
#X msg 62 358 1;
#X obj 39 119 rearrangeVector, f 18;
#X obj 26 333 select 1;
#X obj 71 191 s \$0-b1;
#X obj 26 283 r \$0-b1;
#X obj 130 191 s \$0-b2;
#X obj 190 191 s \$0-b3;
#X obj 249 191 s \$0-b4;
#X obj 212 398 + 0;
#X obj 230 284 r \$0-b2;
#X obj 139 308 % 128;
#X obj 139 283 r \$0-b1;
#X obj 26 308 div 128;
#X obj 212 456 s \$0-exponent;
#X obj 26 413 s \$0-sign;
#X obj 94 640 r \$0-sign;
#X obj 113 562 r \$0-exponent;
#X msg 79 588 2;
#X obj 79 614 pow;
#X obj 61 640 *;
#X obj 336 652 s \$0-mantissa;
#X obj 336 324 r \$0-b2;
#X obj 396 324 r \$0-b3;
#X obj 456 324 r \$0-b4;
#X obj 396 476 +;
#X obj 336 495 +;
#X obj 66 534 r \$0-mantissa;
#X obj 146 725 outlet;
#X obj 146 700 list;
#X obj 171 675 r \$0-rest;
#X obj 76 698 t b f;
#X obj 79 58 s \$0-rest;
#X obj 47 614 f;
#X obj 44 385 f;
#X obj 113 588 t b f;
#X obj 39 142 t b l;
#X obj 18 166 s \$0-b;
#X obj 12 535 r \$0-b;
#X obj 212 361 f;
#X obj 243 398 f;
#X obj 139 414 select 1;
#X obj 139 388 > 0;
#X obj 139 361 t f f;
#X obj 336 622 + 1;
#X obj 336 596 *;
#X obj 354 520 loadbang;
#X msg 354 547 2;
#X obj 39 32 list split 8;
#X msg 162 83 1 2 3 4 5 6 7 8;
#X msg 284 82 8 7 6 5 4 3 2 1;
#X obj 71 166 unpack f f f f f f f f, f 60;
#X obj 488 189 s \$0-b8;
#X obj 428 189 s \$0-b7;
#X obj 368 189 s \$0-b6;
#X obj 309 189 s \$0-b5;
#X obj 516 324 r \$0-b5;
#X obj 576 324 r \$0-b6;
#X obj 636 324 r \$0-b7;
#X obj 230 309 div 16;
#X obj 336 349 % 16;
#X obj 636 400 +;
#X obj 576 419 +;
#X obj 516 438 +;
#X obj 456 457 +;
#X obj 212 424 - 1023;
#X obj 696 324 r \$0-b8;
#X obj 139 334 << 4;
#N canvas 0 25 476 395 getMantissa-fullPrecision 0;
#X obj 14 11 r \$0-b2;
#X obj 74 11 r \$0-b3;
#X obj 134 11 r \$0-b4;
#X obj 74 163 +;
#X obj 14 182 +;
#X obj 14 309 + 1;
#X obj 14 283 *;
#X obj 32 207 loadbang;
#X msg 32 234 2;
#X obj 194 11 r \$0-b5;
#X obj 254 11 r \$0-b6;
#X obj 314 11 r \$0-b7;
#X obj 14 36 % 16;
#X obj 32 258 pow -52;
#X obj 314 61 << 8;
#X obj 254 61 << 16;
#X obj 194 61 << 32;
#X obj 134 61 << 64;
#X obj 74 61 << 128;
#X obj 14 61 << 256;
#X obj 314 87 +;
#X obj 254 106 +;
#X obj 194 125 +;
#X obj 134 144 +;
#X obj 374 11 r \$0-b8;
#X obj 14 339 s \$0-mantissa;
#X connect 0 0 12 0;
#X connect 1 0 18 0;
#X connect 2 0 17 0;
#X connect 3 0 4 1;
#X connect 4 0 6 0;
#X connect 6 0 5 0;
#X connect 7 0 8 0;
#X connect 8 0 13 0;
#X connect 9 0 16 0;
#X connect 10 0 15 0;
#X connect 11 0 14 0;
#X connect 12 0 19 0;
#X connect 13 0 6 1;
#X connect 14 0 20 0;
#X connect 15 0 21 0;
#X connect 16 0 22 0;
#X connect 17 0 23 0;
#X connect 18 0 3 0;
#X connect 19 0 4 0;
#X connect 20 0 21 1;
#X connect 21 0 22 1;
#X connect 22 0 23 1;
#X connect 23 0 3 1;
#X connect 24 0 20 1;
#X restore 517 591 pd getMantissa-fullPrecision;
#X obj 636 374 << 0;
#X obj 576 374 << 0;
#X obj 516 374 << 0;
#X obj 456 374 << 0;
#X obj 396 374 << 8;
#X obj 336 374 << 16;
#X obj 354 571 pow -20;
#X text 335 283 (we reduce the precision of the mantissa since Pure
Data floats are 32-bit);
#X connect 0 0 56 0;
#X connect 2 0 3 0;
#X connect 3 0 4 0;
#X connect 4 0 57 0;
#X connect 4 1 58 0;
#X connect 5 0 6 0;
#X connect 6 0 57 0;
#X connect 6 1 58 0;
#X connect 7 0 39 0;
#X connect 8 0 42 0;
#X connect 9 0 42 0;
#X connect 10 0 44 0;
#X connect 11 0 8 0;
#X connect 11 1 9 0;
#X connect 13 0 21 0;
#X connect 17 0 73 0;
#X connect 18 0 67 0;
#X connect 19 0 75 0;
#X connect 20 0 19 0;
#X connect 21 0 11 0;
#X connect 24 0 7 1;
#X connect 25 0 43 0;
#X connect 26 0 27 0;
#X connect 27 0 28 1;
#X connect 28 0 7 0;
#X connect 30 0 68 0;
#X connect 31 0 81 0;
#X connect 32 0 80 0;
#X connect 33 0 34 1;
#X connect 34 0 53 0;
#X connect 35 0 41 1;
#X connect 37 0 36 0;
#X connect 38 0 37 1;
#X connect 39 0 37 0;
#X connect 39 1 1 0;
#X connect 41 0 28 0;
#X connect 42 0 23 0;
#X connect 43 0 26 0;
#X connect 43 1 27 1;
#X connect 44 0 45 0;
#X connect 44 1 59 0;
#X connect 46 0 41 0;
#X connect 47 0 17 0;
#X connect 48 0 73 0;
#X connect 49 0 47 0;
#X connect 49 1 48 0;
#X connect 50 0 49 0;
#X connect 51 0 50 0;
#X connect 51 1 48 1;
#X connect 51 1 47 1;
#X connect 52 0 29 0;
#X connect 53 0 52 0;
#X connect 54 0 55 0;
#X connect 55 0 83 0;
#X connect 56 0 10 0;
#X connect 56 1 40 0;
#X connect 57 0 10 1;
#X connect 58 0 10 1;
#X connect 59 0 12 0;
#X connect 59 1 14 0;
#X connect 59 2 15 0;
#X connect 59 3 16 0;
#X connect 59 4 63 0;
#X connect 59 5 62 0;
#X connect 59 6 61 0;
#X connect 59 7 60 0;
#X connect 67 0 17 1;
#X connect 68 0 82 0;
#X connect 69 0 70 1;
#X connect 70 0 71 1;
#X connect 71 0 72 1;
#X connect 72 0 33 1;
#X connect 73 0 22 0;
#X connect 75 0 51 0;
#X connect 77 0 69 0;
#X connect 78 0 70 0;
#X connect 79 0 71 0;
#X connect 80 0 72 0;
#X connect 81 0 33 0;
#X connect 82 0 34 0;
#X connect 83 0 53 1;
