#N canvas 664 154 120 141 12;
#X obj 7 105 outlet;
#X obj 7 9 loadbang;
#X obj 7 56 atan;
#X msg 7 33 1;
#X obj 7 80 * 4;
#X obj 71 9 inlet;
#X connect 1 0 3 0;
#X connect 2 0 4 0;
#X connect 3 0 2 0;
#X connect 4 0 0 0;
#X connect 5 0 3 0;
