#N canvas 656 47 525 736 12;
#X obj 23 43 inlet;
#X obj 247 656 outlet;
#X obj 232 632 list store;
#X msg 200 608 prepend \$1 \$2 \$3 \$4;
#X obj 55 91 unpack f f f f, f 26;
#X obj 172 571 list;
#X obj 222 570 list;
#X obj 273 570 list;
#X obj 174 115 s \$0-y;
#X obj 234 115 s \$0-z;
#X obj 55 116 s \$0-w;
#X obj 114 115 s \$0-x;
#X obj 323 67 * 2;
#X obj 383 67 * 2;
#X obj 443 67 * 2;
#X obj 323 91 s \$0-x2;
#X obj 383 91 s \$0-y2;
#X obj 443 91 s \$0-z2;
#X obj 87 204 r \$0-x2;
#X obj 125 230 *;
#X obj 111 256 s \$0-xx;
#X obj 252 231 *;
#X obj 238 257 s \$0-xy;
#X obj 214 205 r \$0-y2;
#X obj 374 231 *;
#X obj 336 205 r \$0-z2;
#X obj 360 257 s \$0-xz;
#X obj 127 317 *;
#X obj 254 318 *;
#X obj 376 318 *;
#X obj 338 292 r \$0-z2;
#X obj 92 375 r \$0-x2;
#X obj 130 401 *;
#X obj 257 402 *;
#X obj 219 376 r \$0-y2;
#X obj 379 402 *;
#X obj 341 376 r \$0-z2;
#X obj 113 343 s \$0-yy;
#X obj 116 427 s \$0-wx;
#X obj 243 428 s \$0-wy;
#X obj 365 428 s \$0-wz;
#X obj 362 344 s \$0-zz;
#X obj 240 344 s \$0-yz;
#X obj 89 291 r \$0-y2;
#X obj 216 292 r \$0-z2;
#N canvas 179 293 399 280 v1 0;
#X obj 168 8 inlet;
#X obj 148 242 outlet;
#X obj 148 214 pack f f f 0;
#X obj 46 177 + 1;
#X obj 46 151 * -1;
#X obj 46 126 +;
#X obj 7 71 r \$0-yy;
#X obj 68 71 r \$0-zz;
#X obj 176 124 +;
#X obj 306 131 -;
#X obj 200 71 r \$0-wz;
#X obj 139 71 r \$0-xy;
#X obj 273 70 r \$0-xz;
#X obj 334 70 r \$0-wy;
#X obj 28 99 f;
#X obj 160 98 f;
#X obj 293 101 f;
#X obj 168 35 t b b b;
#X connect 0 0 17 0;
#X connect 2 0 1 0;
#X connect 3 0 2 0;
#X connect 4 0 3 0;
#X connect 5 0 4 0;
#X connect 6 0 14 1;
#X connect 7 0 5 1;
#X connect 8 0 2 1;
#X connect 9 0 2 2;
#X connect 10 0 8 1;
#X connect 11 0 15 1;
#X connect 12 0 16 1;
#X connect 13 0 9 1;
#X connect 14 0 5 0;
#X connect 15 0 8 0;
#X connect 16 0 9 0;
#X connect 17 0 14 0;
#X connect 17 1 15 0;
#X connect 17 2 16 0;
#X restore 172 545 pd v1;
#N canvas 326 388 399 280 v2 0;
#X obj 168 8 inlet;
#X obj 148 242 outlet;
#X obj 148 214 pack f f f 0;
#X obj 168 35 t b b b;
#X obj 310 123 +;
#X obj 294 97 f;
#X obj 43 131 -;
#X obj 30 101 f;
#X obj 179 177 + 1;
#X obj 179 151 * -1;
#X obj 179 126 +;
#X obj 201 71 r \$0-zz;
#X obj 161 99 f;
#X obj 10 70 r \$0-xy;
#X obj 71 70 r \$0-wz;
#X obj 140 71 r \$0-xx;
#X obj 273 70 r \$0-yz;
#X obj 334 70 r \$0-wx;
#X connect 0 0 3 0;
#X connect 2 0 1 0;
#X connect 3 0 7 0;
#X connect 3 1 12 0;
#X connect 3 2 5 0;
#X connect 4 0 2 2;
#X connect 5 0 4 0;
#X connect 6 0 2 0;
#X connect 7 0 6 0;
#X connect 8 0 2 1;
#X connect 9 0 8 0;
#X connect 10 0 9 0;
#X connect 11 0 10 1;
#X connect 12 0 10 0;
#X connect 13 0 7 1;
#X connect 14 0 6 1;
#X connect 15 0 12 1;
#X connect 16 0 5 1;
#X connect 17 0 4 1;
#X restore 222 545 pd v2;
#N canvas 796 134 399 280 v3 0;
#X obj 168 8 inlet;
#X obj 148 242 outlet;
#X obj 148 214 pack f f f 0;
#X obj 168 35 t b b b;
#X obj 313 176 + 1;
#X obj 313 150 * -1;
#X obj 313 125 +;
#X obj 295 98 f;
#X obj 47 125 +;
#X obj 177 132 -;
#X obj 31 99 f;
#X obj 164 102 f;
#X obj 10 72 r \$0-xz;
#X obj 71 72 r \$0-wy;
#X obj 144 71 r \$0-yz;
#X obj 205 71 r \$0-wx;
#X obj 274 70 r \$0-xx;
#X obj 335 70 r \$0-yy;
#X connect 0 0 3 0;
#X connect 2 0 1 0;
#X connect 3 0 10 0;
#X connect 3 1 11 0;
#X connect 3 2 7 0;
#X connect 4 0 2 2;
#X connect 5 0 4 0;
#X connect 6 0 5 0;
#X connect 7 0 6 0;
#X connect 8 0 2 0;
#X connect 9 0 2 1;
#X connect 10 0 8 0;
#X connect 11 0 9 0;
#X connect 12 0 10 1;
#X connect 13 0 8 1;
#X connect 14 0 11 1;
#X connect 15 0 9 1;
#X connect 16 0 7 1;
#X connect 17 0 6 1;
#X restore 273 545 pd v3;
#X obj 23 143 s \$0-pack-lists;
#X obj 23 66 t b l;
#X obj 219 487 r \$0-pack-lists;
#X obj 219 510 t b b b b b b;
#X msg 323 569 0 0 0 1;
#X obj 323 42 r \$0-x;
#X obj 383 42 r \$0-y;
#X obj 443 42 r \$0-z;
#X obj 146 204 r \$0-x;
#X obj 273 205 r \$0-x;
#X obj 395 205 r \$0-x;
#X obj 148 291 r \$0-y;
#X obj 151 375 r \$0-w;
#X obj 278 376 r \$0-w;
#X obj 275 292 r \$0-y;
#X obj 397 292 r \$0-z;
#X obj 400 376 r \$0-w;
#X connect 0 0 49 0;
#X connect 2 0 1 0;
#X connect 3 0 2 0;
#X connect 4 0 10 0;
#X connect 4 1 11 0;
#X connect 4 2 8 0;
#X connect 4 3 9 0;
#X connect 5 0 3 0;
#X connect 6 0 3 0;
#X connect 7 0 3 0;
#X connect 12 0 15 0;
#X connect 13 0 16 0;
#X connect 14 0 17 0;
#X connect 18 0 19 0;
#X connect 19 0 20 0;
#X connect 21 0 22 0;
#X connect 23 0 21 1;
#X connect 24 0 26 0;
#X connect 25 0 24 1;
#X connect 27 0 37 0;
#X connect 28 0 42 0;
#X connect 29 0 41 0;
#X connect 30 0 29 0;
#X connect 31 0 32 1;
#X connect 32 0 38 0;
#X connect 33 0 39 0;
#X connect 34 0 33 1;
#X connect 35 0 40 0;
#X connect 36 0 35 1;
#X connect 43 0 27 0;
#X connect 44 0 28 1;
#X connect 45 0 5 0;
#X connect 46 0 6 0;
#X connect 47 0 7 0;
#X connect 49 0 48 0;
#X connect 49 1 4 0;
#X connect 50 0 51 0;
#X connect 51 0 2 0;
#X connect 51 1 45 0;
#X connect 51 2 46 0;
#X connect 51 3 47 0;
#X connect 51 4 52 0;
#X connect 51 5 2 1;
#X connect 52 0 3 0;
#X connect 53 0 12 0;
#X connect 54 0 13 0;
#X connect 55 0 14 0;
#X connect 56 0 19 1;
#X connect 57 0 21 0;
#X connect 58 0 24 0;
#X connect 59 0 27 1;
#X connect 60 0 32 0;
#X connect 61 0 33 0;
#X connect 62 0 28 0;
#X connect 63 0 29 1;
#X connect 64 0 35 0;
#X coords 0 736 1 735 85 60 0;
