#N canvas 391 82 333 86 12;
#X obj 6 60 print rearranged_vector;
#X text 187 8 arrangement;
#X text 176 35 arrangement as args;
#X msg 4 7 10 0.2 33 400;
#X obj 6 35 rearrangeVector 1 2 3;
#X msg 111 7 4 -3 2 1;
#X connect 3 0 4 0;
#X connect 4 0 0 0;
#X connect 5 0 4 1;
