#N canvas 638 215 273 535 12;
#X obj 7 9 inlet;
#X obj 14 502 outlet;
#X obj 7 33 t b l;
#X obj 65 11 inlet;
#X obj 13 111 list;
#X obj 109 11 loadbang;
#X obj 109 59 f \$1;
#X obj 147 59 f \$2;
#X obj 186 59 f \$3;
#X obj 225 59 f \$4;
#X obj 14 472 list store;
#X obj 109 35 t b b b b, f 17;
#X obj 109 84 pack f f f f, f 17;
#X obj 13 137 t b l b;
#X obj 118 405 * 1;
#X msg 215 332 1;
#X msg 169 332 -1;
#X obj 122 247 t f f;
#X obj 61 282 abs;
#X obj 61 307 - 1;
#X obj 169 308 moses 0;
#X obj 113 223 select 0;
#X obj 36 169 list split 1;
#X obj 92 196 list;
#X obj 36 195 t b f;
#X obj 76 367 list store;
#X msg 76 339 get \$1 1;
#X msg 118 432 append \$1;
#X connect 0 0 2 0;
#X connect 2 0 4 0;
#X connect 2 1 25 1;
#X connect 3 0 4 1;
#X connect 4 0 13 0;
#X connect 5 0 11 0;
#X connect 6 0 12 0;
#X connect 7 0 12 1;
#X connect 8 0 12 2;
#X connect 9 0 12 3;
#X connect 10 0 1 0;
#X connect 11 0 6 0;
#X connect 11 1 7 0;
#X connect 11 2 8 0;
#X connect 11 3 9 0;
#X connect 12 0 4 1;
#X connect 13 0 10 0;
#X connect 13 1 22 0;
#X connect 13 2 10 1;
#X connect 14 0 27 0;
#X connect 15 0 14 1;
#X connect 16 0 14 1;
#X connect 17 0 18 0;
#X connect 17 1 20 0;
#X connect 18 0 19 0;
#X connect 19 0 26 0;
#X connect 20 0 16 0;
#X connect 20 1 15 0;
#X connect 21 1 17 0;
#X connect 22 0 24 0;
#X connect 22 1 23 1;
#X connect 23 0 22 0;
#X connect 24 0 23 0;
#X connect 24 1 21 0;
#X connect 25 0 14 0;
#X connect 26 0 25 0;
#X connect 27 0 10 0;
