#N canvas 714 158 294 326 12;
#X obj 7 8 inlet;
#X obj 110 294 outlet;
#X obj 116 8 inlet;
#X obj 194 5 loadbang;
#X obj 116 42 f \$1 1;
#X obj 195 58 symbol \$2;
#X obj 205 147 /;
#X msg 187 123 1;
#X obj 141 190 f;
#X obj 116 66 t b f f;
#X obj 209 88 select d;
#X obj 194 28 t b b;
#X obj 10 71 list split 1;
#X obj 66 95 list;
#X obj 10 95 t b f;
#X obj 122 215 *;
#X obj 8 35 t b l b;
#X obj 99 269 list store;
#X msg 100 244 append \$1;
#X connect 0 0 16 0;
#X connect 2 0 4 0;
#X connect 3 0 11 0;
#X connect 4 0 9 0;
#X connect 5 0 10 0;
#X connect 6 0 8 0;
#X connect 7 0 6 0;
#X connect 8 0 15 1;
#X connect 9 0 5 0;
#X connect 9 1 6 1;
#X connect 9 2 8 0;
#X connect 10 0 7 0;
#X connect 11 0 5 0;
#X connect 11 1 4 0;
#X connect 12 0 14 0;
#X connect 12 1 13 1;
#X connect 13 0 12 0;
#X connect 14 0 13 0;
#X connect 14 1 15 0;
#X connect 15 0 18 0;
#X connect 16 0 17 0;
#X connect 16 1 12 0;
#X connect 16 2 17 1;
#X connect 17 0 1 0;
#X connect 18 0 17 0;
