#N canvas 463 202 277 99 12;
#X floatatom 122 10 5 0 0 0 scalar - -;
#X obj 6 64 print scaled_vector;
#X msg 6 7 1 2 3;
#X text 140 36 d for division;
#X obj 6 35 scaleVector 100;
#X connect 0 0 4 1;
#X connect 2 0 4 0;
#X connect 4 0 1 0;
