#N canvas 596 72 506 416 12;
#X obj 8 84 netsend -u -b;
#X obj 96 7 inlet;
#X obj 8 8 inlet;
#N canvas 299 483 1004 129 parser 1;
#X obj 11 10 inlet;
#N canvas 965 265 165 144 parseType 0;
#X obj 14 113 outlet;
#X obj 14 37 list split 1, f 15;
#X obj 14 12 inlet;
#X obj 65 63 outlet;
#X obj 66 113 s \$0-type;
#N canvas 60 479 303 130 numberToType 0;
#X obj 106 34 route 0 1 2;
#X obj 120 98 outlet;
#X obj 126 7 inlet;
#X msg 8 63 motionModule;
#X msg 111 61 leftInsole;
#X msg 198 61 rightInsole;
#X connect 0 0 3 0;
#X connect 0 1 4 0;
#X connect 0 2 5 0;
#X connect 2 0 0 0;
#X connect 3 0 1 0;
#X connect 4 0 1 0;
#X connect 5 0 1 0;
#X restore 14 87 pd numberToType;
#X connect 1 0 5 0;
#X connect 1 1 3 0;
#X connect 2 0 1 0;
#X connect 5 0 0 0;
#X connect 5 0 4 0;
#X restore 166 68 pd parseType;
#X obj 166 92 outlet;
#N canvas 391 462 515 156 parseSensorDataConfig 1;
#X obj 206 8 inlet;
#N canvas 496 159 328 382 parseMotionSensorDataConfig 0;
#X obj 10 11 inlet;
#X obj 10 200 parseUint16;
#X obj 10 309 outlet;
#X obj 241 310 outlet;
#N canvas 694 281 658 131 getMotionSensorDataName 0;
#X obj 10 10 inlet;
#X obj 10 100 outlet;
#X obj 10 37 route 0 1 2 3 4 5, f 88;
#X msg 10 67 acceleration;
#X msg 108 67 gravity;
#X msg 320 64 rotationRate;
#X msg 175 66 linearAcceleration;
#X msg 418 66 magnetometer;
#X msg 520 65 quaternion;
#X obj 602 95 outlet;
#X connect 0 0 2 0;
#X connect 2 0 3 0;
#X connect 2 1 4 0;
#X connect 2 2 6 0;
#X connect 2 3 5 0;
#X connect 2 4 7 0;
#X connect 2 5 8 0;
#X connect 2 6 9 0;
#X connect 3 0 1 0;
#X connect 4 0 1 0;
#X connect 5 0 1 0;
#X connect 6 0 1 0;
#X connect 7 0 1 0;
#X connect 8 0 1 0;
#X restore 103 173 pd getMotionSensorDataName;
#X obj 241 284 list;
#X obj 10 284 list prepend;
#X obj 10 41 t b l;
#X obj 10 175 list;
#X obj 104 202 t b a;
#X obj 53 92 until;
#X obj 53 120 f;
#X obj 91 120 + 1;
#X obj 137 113 sel 0;
#X obj 91 145 mod 6;
#X connect 0 0 7 0;
#X connect 1 0 6 0;
#X connect 1 1 5 1;
#X connect 1 1 8 1;
#X connect 4 0 9 0;
#X connect 5 0 3 0;
#X connect 6 0 2 0;
#X connect 7 0 10 0;
#X connect 7 1 8 1;
#X connect 7 1 5 1;
#X connect 8 0 1 0;
#X connect 9 0 8 0;
#X connect 9 1 6 1;
#X connect 10 0 11 0;
#X connect 11 0 4 0;
#X connect 11 0 12 0;
#X connect 12 0 14 0;
#X connect 13 0 10 1;
#X connect 13 0 5 0;
#X connect 14 0 11 1;
#X connect 14 0 13 0;
#X restore 11 36 pd parseMotionSensorDataConfig;
#N canvas 331 345 315 354 parsePressureSensorDataConfig 0;
#X obj 11 11 inlet;
#X obj 11 200 parseUint16;
#X obj 11 309 outlet;
#X obj 242 310 outlet;
#X obj 242 284 list;
#X obj 11 284 list prepend;
#X obj 11 41 t b l;
#X obj 11 175 list;
#X obj 105 202 t b a;
#X obj 54 92 until;
#X obj 54 120 f;
#X obj 92 120 + 1;
#X obj 138 113 sel 0;
#N canvas 694 281 590 134 getPressureSensorDataName 0;
#X obj 10 10 inlet;
#X obj 10 100 outlet;
#X msg 10 67 pressureSingleByte;
#X obj 10 37 route 0 1 2 3 4, f 80;
#X msg 155 67 pressureDoubleByte;
#X msg 446 66 heelToToe;
#X msg 400 66 mass;
#X msg 299 66 centerOfMass;
#X obj 528 67 outlet;
#X connect 0 0 3 0;
#X connect 2 0 1 0;
#X connect 3 0 2 0;
#X connect 3 1 4 0;
#X connect 3 2 7 0;
#X connect 3 3 6 0;
#X connect 3 4 5 0;
#X connect 3 5 8 0;
#X connect 4 0 1 0;
#X connect 5 0 1 0;
#X connect 6 0 1 0;
#X connect 7 0 1 0;
#X restore 99 175 pd getPressureSensorDataName;
#X obj 92 145 mod 5;
#X connect 0 0 6 0;
#X connect 1 0 5 0;
#X connect 1 1 4 1;
#X connect 1 1 7 1;
#X connect 4 0 3 0;
#X connect 5 0 2 0;
#X connect 6 0 9 0;
#X connect 6 1 7 1;
#X connect 6 1 4 1;
#X connect 7 0 1 0;
#X connect 8 0 7 0;
#X connect 8 1 5 1;
#X connect 9 0 10 0;
#X connect 10 0 11 0;
#X connect 11 0 14 0;
#X connect 12 0 9 1;
#X connect 12 0 4 0;
#X connect 13 0 8 0;
#X connect 14 0 10 1;
#X connect 14 0 12 0;
#X connect 14 0 13 0;
#X restore 236 35 pd parsePressureSensorDataConfig;
#X obj 165 117 outlet;
#X obj 457 60 outlet;
#X obj 11 60 list prepend motion;
#X obj 236 59 list prepend pressure;
#X obj 165 91 list trim;
#X connect 0 0 1 0;
#X connect 1 0 5 0;
#X connect 1 1 2 0;
#X connect 2 0 6 0;
#X connect 2 1 4 0;
#X connect 5 0 7 0;
#X connect 6 0 7 0;
#X connect 7 0 3 0;
#X restore 662 66 pd parseSensorDataConfig;
#N canvas 428 357 429 224 parseSensorData 1;
#X obj 154 8 inlet;
#X obj 192 192 outlet;
#X obj 371 113 outlet;
#X obj 162 61 route 0 1;
#N canvas 99 265 1238 387 parseMotionSensorData 1;
#X obj 559 8 inlet;
#X obj 559 32 list split 1;
#X obj 559 84 list split;
#X obj 640 84 outlet;
#X obj 19 111 route 0 1 2 3 4 5, f 170;
#X obj 583 323 outlet;
#X obj 12 166 scaleVector 100 d;
#X obj 207 167 scaleVector 100 d;
#X obj 402 165 scaleVector 100 d;
#X obj 641 165 scaleVector 16 d;
#X obj 836 166 scaleVector 16 d;
#X obj 1029 165 scaleVector 16384 d q;
#X obj 12 142 parseVector;
#X obj 207 142 parseVector;
#X obj 402 142 parseVector;
#X obj 641 142 parseVector;
#X obj 836 143 parseVector;
#X obj 1029 140 parseVector q;
#X obj 12 192 rearrangeVector;
#X obj 13 12 r \$0-type;
#N canvas 88 84 633 135 vectorArrangements 0;
#X obj 322 12 inlet;
#X obj 105 104 outlet;
#X obj 416 100 outlet;
#X msg 11 70 1 -3 -2;
#X msg 105 70 -3 2 -1;
#X msg 200 70 3 2 1;
#X msg 322 69 -1 3 2;
#X msg 416 68 3 -2 1;
#X msg 511 68 -3 -2 -1;
#X obj 11 43 route motionModule leftInsole rightInsole;
#X obj 322 43 route motionModule leftInsole rightInsole;
#X connect 0 0 9 0;
#X connect 0 0 10 0;
#X connect 3 0 1 0;
#X connect 4 0 1 0;
#X connect 5 0 1 0;
#X connect 6 0 2 0;
#X connect 7 0 2 0;
#X connect 8 0 2 0;
#X connect 9 0 3 0;
#X connect 9 1 4 0;
#X connect 9 2 5 0;
#X connect 10 0 6 0;
#X connect 10 1 7 0;
#X connect 10 2 8 0;
#X restore 13 36 pd vectorArrangements;
#X obj 207 192 rearrangeVector;
#X obj 402 191 rearrangeVector;
#X obj 641 214 rearrangeVector;
#X obj 836 190 rearrangeVector;
#N canvas 391 160 443 146 quaternionMultiplier 0;
#X obj 16 10 inlet;
#X obj 16 117 outlet;
#X msg 16 63 1 0 0 0;
#X msg 150 63 0.5 -0.5 -0.5 0.5;
#X msg 284 63 0.5 -0.5 0.5 -0.5;
#X obj 16 37 route motionModule leftInsole rightInsole, f 58;
#X connect 0 0 5 0;
#X connect 2 0 1 0;
#X connect 3 0 1 0;
#X connect 4 0 1 0;
#X connect 5 0 2 0;
#X connect 5 1 3 0;
#X connect 5 2 4 0;
#X restore 1059 39 pd quaternionMultiplier;
#X obj 1059 14 r \$0-type;
#X obj 1029 214 multiplyQuaternions;
#X obj 1029 188 rearrangeVector 4 -3 -1 -2;
#X obj 1061 266 quaternionToEuler YXZ;
#X obj 12 240 list prepend acceleration;
#X obj 1061 292 list prepend euler;
#X obj 1029 238 list prepend quaternion;
#X obj 836 238 list prepend magnetometer;
#X obj 402 240 list prepend linearAcceleration;
#X obj 641 239 list prepend rotationRate;
#X obj 559 58 list;
#X obj 607 58 t b f;
#X obj 207 240 list prepend gravity;
#X obj 641 191 scaleVector;
#X obj 754 31 loadbang;
#X obj 754 54 pi;
#X obj 754 77 / 180;
#X connect 0 0 1 0;
#X connect 1 0 37 0;
#X connect 1 1 36 1;
#X connect 2 0 4 0;
#X connect 2 1 3 0;
#X connect 4 0 12 0;
#X connect 4 1 13 0;
#X connect 4 2 14 0;
#X connect 4 3 15 0;
#X connect 4 4 16 0;
#X connect 4 5 17 0;
#X connect 6 0 18 0;
#X connect 7 0 21 0;
#X connect 8 0 22 0;
#X connect 9 0 39 0;
#X connect 10 0 24 0;
#X connect 11 0 28 0;
#X connect 12 0 6 0;
#X connect 12 1 4 0;
#X connect 13 0 7 0;
#X connect 13 1 4 0;
#X connect 14 0 8 0;
#X connect 14 1 4 0;
#X connect 15 0 9 0;
#X connect 15 1 4 0;
#X connect 16 0 10 0;
#X connect 16 1 4 0;
#X connect 17 0 11 0;
#X connect 17 1 4 0;
#X connect 18 0 30 0;
#X connect 19 0 20 0;
#X connect 20 0 18 1;
#X connect 20 0 21 1;
#X connect 20 0 22 1;
#X connect 20 0 24 1;
#X connect 20 1 23 1;
#X connect 21 0 38 0;
#X connect 22 0 34 0;
#X connect 23 0 35 0;
#X connect 24 0 33 0;
#X connect 25 0 27 1;
#X connect 26 0 25 0;
#X connect 27 0 29 0;
#X connect 27 0 32 0;
#X connect 28 0 27 0;
#X connect 29 0 31 0;
#X connect 30 0 5 0;
#X connect 31 0 5 0;
#X connect 32 0 5 0;
#X connect 33 0 5 0;
#X connect 34 0 5 0;
#X connect 35 0 5 0;
#X connect 36 0 2 0;
#X connect 37 0 36 0;
#X connect 37 1 2 1;
#X connect 38 0 5 0;
#X connect 39 0 23 0;
#X connect 40 0 41 0;
#X connect 41 0 42 0;
#X connect 42 0 39 1;
#X restore 11 88 pd parseMotionSensorData;
#N canvas 333 88 894 359 parsePressureSensorData 0;
#X obj 394 11 inlet;
#X obj 392 308 outlet;
#X obj 394 110 route 0 1 2 3 4;
#X obj 201 231 list prepend pressure;
#X obj 392 231 list prepend centerOfMass;
#X obj 581 231 list prepend mass;
#X obj 714 231 list prepend heelToToe;
#N canvas 149 219 184 313 parsePressureSingleByte 0;
#X obj 10 8 inlet;
#X obj 58 277 outlet;
#X obj 10 33 list split 16;
#X obj 83 89 outlet;
#X obj 83 60 list;
#X obj 58 199 /;
#X obj 106 116 loadbang;
#X msg 106 142 2;
#X obj 106 168 pow 8;
#X obj 9 120 list split 1;
#X obj 9 145 t b f;
#X obj 65 145 list;
#X msg 58 225 append \$1;
#X obj 10 60 t b b l b;
#X obj 58 250 list store;
#X connect 0 0 2 0;
#X connect 2 0 13 0;
#X connect 2 1 4 1;
#X connect 4 0 3 0;
#X connect 5 0 12 0;
#X connect 6 0 7 0;
#X connect 7 0 8 0;
#X connect 8 0 5 1;
#X connect 9 0 10 0;
#X connect 9 1 11 1;
#X connect 10 0 11 0;
#X connect 10 1 5 0;
#X connect 11 0 9 0;
#X connect 12 0 14 0;
#X connect 13 0 4 0;
#X connect 13 1 14 0;
#X connect 13 2 9 0;
#X connect 13 3 14 1;
#X connect 14 0 1 0;
#X restore 10 153 pd parsePressureSingleByte;
#N canvas 180 271 151 374 parsePressureDoubleByte 0;
#X obj 10 8 inlet;
#X obj 10 343 outlet;
#X obj 29 122 outlet;
#X obj 29 95 list;
#X obj 10 65 list split 32;
#X obj 105 185 list;
#X obj 10 319 list store;
#X msg 10 294 append \$1;
#X obj 10 267 /;
#X obj 28 186 loadbang;
#X msg 28 212 2;
#X obj 28 238 pow 12;
#X obj 10 36 t b b l b;
#X obj 10 156 parseUint16, f 14;
#X connect 0 0 12 0;
#X connect 3 0 2 0;
#X connect 4 0 13 0;
#X connect 4 1 3 1;
#X connect 5 0 13 0;
#X connect 6 0 1 0;
#X connect 7 0 6 0;
#X connect 8 0 7 0;
#X connect 9 0 10 0;
#X connect 10 0 11 0;
#X connect 11 0 8 1;
#X connect 12 0 6 0;
#X connect 12 0 3 0;
#X connect 12 1 6 0;
#X connect 12 2 4 0;
#X connect 12 3 6 1;
#X connect 13 0 8 0;
#X connect 13 1 5 0;
#X restore 201 153 pd parsePressureDoubleByte;
#N canvas 434 102 508 568 derivePressureData 0;
#X obj 39 13 inlet;
#X obj 36 448 outlet;
#X obj 171 473 outlet;
#X obj 341 308 outlet;
#X obj 406 506 outlet;
#N canvas 399 75 772 633 sensorIndexToPosition 0;
#X obj 12 7 inlet;
#X obj 12 506 outlet;
#X obj 80 193 r \$0-type;
#X obj 12 475 list store;
#X obj 12 64 t b f b;
#X obj 288 8 loadbang;
#X msg 311 60 59.55 32.3 33.1 42.15 69.5 55.5 44.11 64.8 20.3 71.9
63.8 81.1 41.44 90.8 19.2 102.8 48.3 119.7 17.8 130.5 43.3 177.7 18
177 43.3 200.6 18 200 43.5 242 18.55 242.1;
#X obj 35 116 + 1;
#X msg 34 444 append \$1;
#X msg 69 388 0;
#X msg 103 388 1;
#X msg 69 332 1;
#X msg 103 332 -1;
#X obj 58 249 tgl 15 0 empty empty empty 17 7 0 10 -262144 -1 -1 0
1;
#X obj 320 380 list split 1;
#X obj 364 404 list;
#X obj 319 564 list store;
#X msg 319 535 append \$1;
#X msg 368 476 93.257;
#X msg 421 476 265.069;
#X obj 320 507 /;
#X obj 320 404 t b f;
#X obj 368 430 tgl 15 0 empty empty empty 17 7 0 10 -262144 -1 -1 0
1;
#X obj 368 453 select 1;
#X obj 320 430 t f b;
#X obj 288 32 t b b b;
#X obj 80 220 route leftInsole rightInsole;
#X msg 80 247 0;
#X msg 115 247 1;
#X obj 69 274 * 0;
#X obj 69 301 select 0;
#X obj 34 361 * 1;
#X obj 34 416 + 0;
#X obj 35 91 t f b f b;
#X obj 12 37 * 2;
#X msg 35 143 get \$1 1;
#X obj 35 170 list store;
#X connect 0 0 34 0;
#X connect 2 0 26 0;
#X connect 3 0 1 0;
#X connect 4 0 3 0;
#X connect 4 1 33 0;
#X connect 4 2 3 1;
#X connect 5 0 25 0;
#X connect 6 0 14 0;
#X connect 7 0 35 0;
#X connect 8 0 3 0;
#X connect 9 0 32 1;
#X connect 10 0 32 1;
#X connect 11 0 31 1;
#X connect 12 0 31 1;
#X connect 13 0 29 0;
#X connect 14 0 21 0;
#X connect 14 1 15 1;
#X connect 15 0 14 0;
#X connect 16 0 36 1;
#X connect 17 0 16 0;
#X connect 18 0 20 1;
#X connect 19 0 20 1;
#X connect 20 0 17 0;
#X connect 21 0 15 0;
#X connect 21 1 24 0;
#X connect 22 0 23 0;
#X connect 23 0 18 0;
#X connect 23 1 19 0;
#X connect 24 0 20 0;
#X connect 24 1 22 0;
#X connect 25 0 16 0;
#X connect 25 1 6 0;
#X connect 25 2 16 1;
#X connect 26 0 27 0;
#X connect 26 1 28 0;
#X connect 27 0 29 1;
#X connect 28 0 29 1;
#X connect 29 0 30 0;
#X connect 30 0 11 0;
#X connect 30 0 9 0;
#X connect 30 1 12 0;
#X connect 30 1 10 0;
#X connect 31 0 32 0;
#X connect 32 0 8 0;
#X connect 33 0 7 0;
#X connect 33 1 13 0;
#X connect 33 2 35 0;
#X connect 33 3 13 0;
#X connect 34 0 4 0;
#X connect 35 0 36 0;
#X connect 36 0 31 0;
#X restore 37 176 pd sensorIndexToPosition;
#X obj 37 205 unpack f f;
#X obj 39 66 list split 1;
#X text 351 327 mass;
#X text 389 528 heel to toe;
#X text 144 497 center of mass;
#X obj 357 216 f;
#X msg 335 188 0;
#X obj 171 444 pack f f;
#X obj 178 330 f;
#X obj 232 331 f;
#X msg 143 292 0;
#X obj 36 419 list store;
#X obj 243 121 t b;
#X obj 99 93 list;
#X obj 37 149 f;
#X msg 55 125 0;
#X obj 67 149 + 1;
#X msg 36 390 append \$1;
#X obj 39 37 t b l b b;
#X obj 39 93 t b b f;
#X obj 367 186 +;
#X obj 303 120 t b;
#X obj 318 416 * -1;
#X obj 318 443 + 1;
#X obj 342 245 f;
#X obj 172 360 f;
#X obj 218 359 f;
#X obj 218 387 /;
#X obj 172 389 /;
#X obj 307 275 t b f;
#X text 32 475 pressure;
#X obj 187 274 *;
#X obj 187 300 +;
#X obj 245 273 *;
#X obj 241 300 +;
#X obj 356 278 / 16;
#X connect 0 0 24 0;
#X connect 5 0 6 0;
#X connect 6 0 37 0;
#X connect 6 1 39 0;
#X connect 7 0 25 0;
#X connect 7 1 19 1;
#X connect 11 0 30 1;
#X connect 11 0 26 1;
#X connect 12 0 11 0;
#X connect 13 0 2 0;
#X connect 14 0 31 1;
#X connect 14 0 38 1;
#X connect 15 0 32 1;
#X connect 15 0 40 1;
#X connect 16 0 15 0;
#X connect 16 0 14 0;
#X connect 17 0 1 0;
#X connect 18 0 12 0;
#X connect 18 0 16 0;
#X connect 18 0 17 1;
#X connect 19 0 7 0;
#X connect 20 0 22 0;
#X connect 20 0 5 0;
#X connect 21 0 20 1;
#X connect 22 0 20 1;
#X connect 23 0 17 0;
#X connect 24 0 27 0;
#X connect 24 1 7 0;
#X connect 24 2 21 0;
#X connect 24 3 18 0;
#X connect 25 0 19 0;
#X connect 25 1 20 0;
#X connect 25 2 23 0;
#X connect 25 2 26 0;
#X connect 25 2 37 1;
#X connect 25 2 39 1;
#X connect 26 0 11 0;
#X connect 27 0 17 0;
#X connect 27 0 30 0;
#X connect 28 0 29 0;
#X connect 29 0 4 0;
#X connect 29 0 13 1;
#X connect 30 0 35 0;
#X connect 30 0 41 0;
#X connect 31 0 34 0;
#X connect 32 0 33 0;
#X connect 33 0 28 0;
#X connect 34 0 13 0;
#X connect 35 0 32 0;
#X connect 35 0 31 0;
#X connect 35 1 33 1;
#X connect 35 1 34 1;
#X connect 37 0 38 0;
#X connect 38 0 14 0;
#X connect 39 0 40 0;
#X connect 40 0 15 0;
#X connect 41 0 3 0;
#X restore 201 194 pd derivePressureData;
#X f 50;
#N canvas 445 212 143 348 parseCenterOfMass 0;
#X obj 10 8 inlet;
#X obj 10 310 outlet;
#X obj 69 310 outlet;
#X obj 69 283 list;
#X obj 10 282 t b l;
#X obj 91 124 list;
#X obj 10 36 t b l b;
#X obj 10 149 list store;
#X msg 10 124 append \$1;
#X obj 10 95 parseFloat32;
#X obj 10 65 list split 8;
#X obj 63 203 * -1;
#X obj 63 230 + 1;
#X obj 10 175 unpack f f;
#X obj 10 259 pack f f;
#X connect 0 0 6 0;
#X connect 3 0 2 0;
#X connect 4 0 3 0;
#X connect 4 1 1 0;
#X connect 5 0 9 0;
#X connect 6 0 7 0;
#X connect 6 1 10 0;
#X connect 6 2 7 1;
#X connect 7 0 13 0;
#X connect 8 0 7 0;
#X connect 9 0 8 0;
#X connect 9 1 5 0;
#X connect 10 0 9 0;
#X connect 10 1 3 1;
#X connect 11 0 12 0;
#X connect 12 0 14 1;
#X connect 13 0 14 0;
#X connect 13 1 11 0;
#X connect 14 0 4 0;
#X restore 392 153 pd parseCenterOfMass;
#N canvas 445 173 174 175 parseMass 0;
#X obj 10 8 inlet;
#X obj 10 141 outlet;
#X obj 84 141 outlet;
#X obj 10 35 parseUint32;
#X obj 10 107 /;
#X obj 99 8 loadbang;
#X msg 99 34 2;
#X obj 99 86 * 16;
#X obj 99 60 pow 12;
#X connect 0 0 3 0;
#X connect 3 0 4 0;
#X connect 3 1 2 0;
#X connect 4 0 1 0;
#X connect 5 0 6 0;
#X connect 6 0 8 0;
#X connect 7 0 4 1;
#X connect 8 0 7 0;
#X restore 581 153 pd parseMass;
#N canvas 462 177 156 156 parseHeelToToe 0;
#X obj 10 8 inlet;
#X obj 10 113 outlet;
#X obj 91 61 outlet;
#X obj 10 35 parseFloat64;
#X obj 10 59 * -1;
#X obj 10 86 + 1;
#X connect 0 0 3 0;
#X connect 3 0 4 0;
#X connect 3 1 2 0;
#X connect 4 0 5 0;
#X connect 5 0 1 0;
#X restore 714 154 pd parseHeelToToe;
#X obj 394 35 list split 1;
#X obj 394 87 list split;
#X obj 475 87 outlet;
#X obj 394 61 list;
#X obj 442 61 t b f;
#X obj 725 189 unpack f f;
#X connect 0 0 13 0;
#X connect 2 0 7 0;
#X connect 2 1 8 0;
#X connect 2 2 10 0;
#X connect 2 3 11 0;
#X connect 2 4 12 0;
#X connect 3 0 1 0;
#X connect 4 0 1 0;
#X connect 5 0 1 0;
#X connect 6 0 1 0;
#X connect 7 0 9 0;
#X connect 7 1 2 0;
#X connect 8 0 9 0;
#X connect 8 1 2 0;
#X connect 9 0 3 0;
#X connect 9 1 4 0;
#X connect 9 2 5 0;
#X connect 9 3 6 0;
#X connect 10 0 4 0;
#X connect 10 0 18 0;
#X connect 10 1 2 0;
#X connect 11 0 5 0;
#X connect 11 1 2 0;
#X connect 12 0 6 0;
#X connect 12 1 2 0;
#X connect 13 0 17 0;
#X connect 13 1 16 1;
#X connect 14 0 2 0;
#X connect 14 1 15 0;
#X connect 16 0 14 0;
#X connect 17 0 16 0;
#X connect 17 1 14 1;
#X connect 18 1 6 0;
#X restore 192 89 pd parsePressureSensorData;
#X obj 192 141 list prepend;
#N canvas 937 209 234 292 timestamp 0;
#X obj 12 8 inlet;
#X obj 18 256 outlet;
#X obj 72 257 outlet;
#X obj 12 32 parseUint16;
#X obj 12 79 t f f f;
#X obj 13 128 moses 0;
#X obj 13 103 -;
#X obj 13 150 bng 15 250 50 0 empty empty empty 17 7 0 10 -262144 -1
-1;
#X obj 19 225 +;
#X obj 48 197 +;
#X obj 12 55 / 1000;
#X msg 13 170 65.536;
#X obj 91 112 loadbang;
#X msg 91 170 0;
#X obj 105 139 r \$0-connected;
#X obj 14 197 f 0;
#X connect 0 0 3 0;
#X connect 3 0 10 0;
#X connect 3 1 2 0;
#X connect 4 0 8 0;
#X connect 4 1 6 1;
#X connect 4 2 6 0;
#X connect 5 0 7 0;
#X connect 6 0 5 0;
#X connect 7 0 11 0;
#X connect 8 0 1 0;
#X connect 9 0 15 0;
#X connect 10 0 4 0;
#X connect 11 0 9 0;
#X connect 12 0 13 0;
#X connect 13 0 15 0;
#X connect 14 0 13 0;
#X connect 15 0 8 1;
#X connect 15 0 9 1;
#X restore 154 32 pd timestamp;
#X obj 11 112 list prepend motion;
#X obj 192 112 list prepend pressure;
#X obj 192 167 list trim;
#X connect 0 0 7 0;
#X connect 3 0 4 0;
#X connect 3 1 5 0;
#X connect 4 0 8 0;
#X connect 4 1 3 0;
#X connect 5 0 9 0;
#X connect 5 1 2 0;
#X connect 6 0 10 0;
#X connect 7 0 6 1;
#X connect 7 1 3 0;
#X connect 8 0 6 0;
#X connect 9 0 6 0;
#X connect 10 0 1 0;
#X restore 847 66 pd parseSensorData;
#X obj 662 92 outlet;
#X obj 847 92 outlet;
#N canvas 464 143 122 225 parseName 0;
#X obj 12 11 inlet;
#X obj 12 190 outlet;
#X obj 59 138 outlet;
#X obj 12 37 list split 1;
#X obj 12 88 list split;
#X obj 12 63 list;
#X obj 47 63 t b f;
#X obj 12 164 list tosymbol;
#X obj 59 113 list;
#X obj 12 113 t b l;
#X connect 0 0 3 0;
#X connect 3 0 6 0;
#X connect 3 1 5 1;
#X connect 4 0 9 0;
#X connect 4 1 8 1;
#X connect 5 0 4 0;
#X connect 6 0 5 0;
#X connect 6 1 4 1;
#X connect 7 0 1 0;
#X connect 8 0 2 0;
#X connect 9 0 8 0;
#X connect 9 1 7 0;
#X restore 319 67 pd parseName;
#X obj 319 92 outlet;
#N canvas 516 296 485 413 parseMotionCalibration 0;
#X obj 12 10 inlet;
#X obj 28 350 outlet;
#X obj 72 84 outlet;
#X obj 72 59 list;
#X obj 13 34 list split 4;
#X obj 13 59 t b l b;
#X obj 256 216 f;
#X msg 244 189 1;
#X obj 256 264 list prepend isFullyCalibrated;
#X obj 280 165 == 3;
#X obj 280 189 *;
#X obj 256 240 f;
#X obj 27 84 t l b;
#X obj 27 116 list split 1;
#X obj 84 141 list;
#X obj 55 196 f;
#X msg 73 172 0;
#X obj 87 196 + 1;
#X obj 28 295 list prepend;
#N canvas 0 25 442 118 getMotionCalibrationName 0;
#X obj 8 7 inlet;
#X obj 8 33 route 0 1 2 3, f 59;
#X obj 8 86 outlet;
#X msg 8 58 system;
#X msg 110 58 gyroscope;
#X msg 213 58 accelerometer;
#X msg 315 58 magnetometer;
#X connect 0 0 1 0;
#X connect 1 0 3 0;
#X connect 1 1 4 0;
#X connect 1 2 5 0;
#X connect 1 3 6 0;
#X connect 3 0 2 0;
#X connect 4 0 2 0;
#X connect 5 0 2 0;
#X connect 6 0 2 0;
#X restore 46 264 pd getMotionCalibrationName;
#X obj 27 141 t b f b;
#X obj 28 323 list trim;
#X connect 0 0 4 0;
#X connect 3 0 2 0;
#X connect 4 0 5 0;
#X connect 4 1 3 1;
#X connect 5 0 11 0;
#X connect 5 0 3 0;
#X connect 5 1 12 0;
#X connect 5 2 7 0;
#X connect 6 0 11 1;
#X connect 6 0 10 1;
#X connect 7 0 6 0;
#X connect 8 0 21 0;
#X connect 9 0 10 0;
#X connect 10 0 6 0;
#X connect 11 0 8 0;
#X connect 12 0 13 0;
#X connect 12 1 16 0;
#X connect 13 0 20 0;
#X connect 13 1 14 1;
#X connect 14 0 13 0;
#X connect 15 0 17 0;
#X connect 15 0 19 0;
#X connect 16 0 15 1;
#X connect 17 0 15 1;
#X connect 18 0 21 0;
#X connect 19 0 18 1;
#X connect 20 0 14 0;
#X connect 20 1 18 0;
#X connect 20 1 9 0;
#X connect 20 2 15 0;
#X connect 21 0 1 0;
#X restore 469 66 pd parseMotionCalibration;
#X obj 469 92 outlet;
#X obj 57 10 r \$0-toParse;
#X obj 217 92 s \$0-toParse;
#X obj 368 92 s \$0-toParse;
#X obj 560 92 s \$0-toParse;
#X obj 746 92 s \$0-toParse;
#X obj 896 92 s \$0-toParse;
#N canvas 419 251 129 120 parseBattery 0;
#X obj 10 11 inlet;
#X obj 10 84 outlet;
#X obj 60 84 outlet;
#X obj 10 35 list split 1;
#X obj 66 60 list;
#X obj 10 60 t b f;
#X connect 0 0 3 0;
#X connect 3 0 5 0;
#X connect 3 1 4 1;
#X connect 4 0 2 0;
#X connect 5 0 4 0;
#X connect 5 1 1 0;
#X restore 11 68 pd parseBattery;
#X obj 11 36 route 0 1 2 3 4 5 6 7 8 9, f 138;
#X obj 11 92 outlet;
#X obj 64 92 s \$0-toParse;
#X connect 0 0 18 0;
#X connect 1 0 2 0;
#X connect 1 1 12 0;
#X connect 3 0 5 0;
#X connect 3 1 15 0;
#X connect 4 0 6 0;
#X connect 4 1 16 0;
#X connect 7 0 8 0;
#X connect 7 1 13 0;
#X connect 9 0 10 0;
#X connect 9 1 14 0;
#X connect 11 0 18 0;
#X connect 17 0 19 0;
#X connect 17 1 20 0;
#X connect 18 1 17 0;
#X connect 18 2 1 0;
#X connect 18 3 1 0;
#X connect 18 4 7 0;
#X connect 18 5 7 0;
#X connect 18 6 9 0;
#X connect 18 7 3 0;
#X connect 18 8 3 0;
#X connect 18 9 4 0;
#X restore 96 108 pd parser;
#X f 37;
#X obj 147 132 outlet;
#N canvas 650 48 296 146 connection 0;
#X obj 214 12 inlet;
#X obj 9 9 inlet;
#X msg 9 78 connect 192.168.1.140 9999;
#X msg 207 78 disconnect;
#X obj 214 37 select 1;
#X msg 9 55 set connect \$1 9999;
#X obj 125 113 outlet;
#X obj 9 32 list prepend;
#X connect 0 0 4 0;
#X connect 1 0 7 0;
#X connect 2 0 6 0;
#X connect 3 0 6 0;
#X connect 4 0 2 0;
#X connect 4 1 3 0;
#X connect 5 0 2 0;
#X connect 7 0 5 0;
#X restore 8 34 pd connection;
#X obj 300 132 outlet;
#X obj 352 132 outlet;
#X obj 172 7 inlet;
#X obj 251 7 inlet;
#X obj 331 5 inlet;
#X obj 198 132 outlet;
#X obj 249 132 outlet;
#X msg 8 351 send 0;
#X obj 15 58 r \$0-netSend;
#X obj 8 108 outlet;
#X obj 8 377 s \$0-netSend;
#N canvas 498 447 466 178 setType 0;
#X obj 9 10 inlet;
#X obj 106 148 outlet;
#X obj 9 59 select motionModule leftInsole rightInsole;
#X msg 9 85 0;
#X msg 106 85 1;
#X msg 203 85 2;
#X obj 300 85 print unknown type \$1;
#X obj 9 34 symbol;
#X obj 106 122 list prepend 3;
#X connect 0 0 7 0;
#X connect 2 0 3 0;
#X connect 2 1 4 0;
#X connect 2 2 5 0;
#X connect 2 3 6 0;
#X connect 3 0 8 0;
#X connect 4 0 8 0;
#X connect 5 0 8 0;
#X connect 7 0 2 0;
#X connect 8 0 1 0;
#X restore 172 31 pd setType;
#X obj 221 59 s \$0-netSend;
#N canvas 339 227 139 204 setName 0;
#X obj 11 10 inlet;
#X obj 11 169 outlet;
#X obj 11 35 list fromsymbol;
#X obj 43 86 list length;
#X obj 11 61 t l l;
#X obj 11 115 list prepend;
#X obj 11 142 list prepend 5;
#X connect 0 0 2 0;
#X connect 2 0 4 0;
#X connect 3 0 5 1;
#X connect 4 0 5 0;
#X connect 4 1 3 0;
#X connect 5 0 6 0;
#X connect 6 0 1 0;
#X restore 251 31 pd setName;
#N canvas 572 224 384 345 setSensorDataConfig 0;
#X obj 126 13 inlet;
#X obj 164 306 outlet;
#X obj 83 72 route motion pressure;
#N canvas 28 187 487 501 packMotionDataConfig 0;
#X obj 10 17 inlet;
#X obj 131 474 outlet;
#X obj 235 212 outlet;
#X obj 125 370 list store;
#X obj 44 207 packUint16;
#X obj 235 186 list;
#X obj 10 105 list split 1;
#X obj 124 207 list;
#X obj 64 246 list;
#X obj 22 247 f;
#X msg 24 310 append \$1;
#X msg 126 319 append \$1 \$2;
#X obj 233 158 t b b;
#X obj 11 74 t a a;
#X obj 10 47 t a b;
#X obj 52 182 list split 1;
#X obj 22 276 t b b f;
#X obj 174 399 list length;
#X obj 127 399 t l l;
#N canvas 0 25 575 157 motionSensorDataTypeToNumber 0;
#X obj 7 36 select acceleration gravity linearAcceleration rotationRate
magnetometer quaternion, f 83;
#X msg 7 66 0;
#X msg 103 66 1;
#X msg 199 66 2;
#X msg 296 66 3;
#X msg 392 66 4;
#X msg 488 66 5;
#X obj 585 65 t b;
#X obj 7 11 inlet;
#X obj 585 114 outlet;
#X obj 296 114 outlet;
#X connect 0 0 1 0;
#X connect 0 1 2 0;
#X connect 0 2 3 0;
#X connect 0 3 4 0;
#X connect 0 4 5 0;
#X connect 0 5 6 0;
#X connect 0 6 7 0;
#X connect 1 0 10 0;
#X connect 2 0 10 0;
#X connect 3 0 10 0;
#X connect 4 0 10 0;
#X connect 5 0 10 0;
#X connect 6 0 10 0;
#X connect 7 0 9 0;
#X connect 8 0 0 0;
#X restore 10 133 pd motionSensorDataTypeToNumber;
#X obj 131 449 list prepend 0;
#X obj 131 423 list prepend;
#X connect 0 0 14 0;
#X connect 3 0 18 0;
#X connect 4 0 8 1;
#X connect 5 0 2 0;
#X connect 6 0 19 0;
#X connect 6 1 15 0;
#X connect 6 2 12 0;
#X connect 7 0 13 0;
#X connect 8 0 11 0;
#X connect 9 0 16 0;
#X connect 10 0 3 0;
#X connect 11 0 3 0;
#X connect 12 0 5 0;
#X connect 12 1 3 0;
#X connect 13 0 6 0;
#X connect 13 1 5 1;
#X connect 14 0 13 0;
#X connect 14 1 3 1;
#X connect 15 0 4 0;
#X connect 15 1 7 1;
#X connect 16 0 7 0;
#X connect 16 1 8 0;
#X connect 16 2 10 0;
#X connect 17 0 21 1;
#X connect 18 0 21 0;
#X connect 18 1 17 0;
#X connect 19 0 9 0;
#X connect 19 1 12 0;
#X connect 20 0 1 0;
#X connect 21 0 20 0;
#X restore 14 96 pd packMotionDataConfig;
#N canvas 318 281 500 532 packPressureDataConfig 0;
#X obj 10 17 inlet;
#X obj 131 474 outlet;
#X obj 235 212 outlet;
#X obj 125 370 list store;
#X obj 44 207 packUint16;
#X obj 235 186 list;
#X obj 10 105 list split 1;
#X obj 124 207 list;
#X obj 64 246 list;
#X obj 22 247 f;
#X msg 24 310 append \$1;
#X msg 126 319 append \$1 \$2;
#X obj 233 158 t b b;
#X obj 11 74 t a a;
#X obj 10 47 t a b;
#X obj 52 182 list split 1;
#N canvas 0 25 575 157 pressureSensorDataTypeToNumber 0;
#X msg 7 66 0;
#X msg 108 66 1;
#X msg 210 66 2;
#X msg 311 66 3;
#X msg 413 66 4;
#X obj 515 65 t b;
#X obj 7 11 inlet;
#X obj 515 114 outlet;
#X obj 223 110 outlet;
#X obj 7 36 select pressureSingleByte pressureDoubleByte centerOfMass
mass heelToToe, f 73;
#X connect 0 0 8 0;
#X connect 1 0 8 0;
#X connect 2 0 8 0;
#X connect 3 0 8 0;
#X connect 4 0 8 0;
#X connect 5 0 7 0;
#X connect 6 0 9 0;
#X connect 9 0 0 0;
#X connect 9 1 1 0;
#X connect 9 2 2 0;
#X connect 9 3 3 0;
#X connect 9 4 4 0;
#X connect 9 5 5 0;
#X restore 10 133 pd pressureSensorDataTypeToNumber;
#X obj 22 276 t b b f;
#X obj 174 399 list length;
#X obj 127 399 t l l;
#X obj 131 449 list prepend 1;
#X obj 131 423 list prepend;
#X connect 0 0 14 0;
#X connect 3 0 19 0;
#X connect 4 0 8 1;
#X connect 5 0 2 0;
#X connect 6 0 16 0;
#X connect 6 1 15 0;
#X connect 6 2 12 0;
#X connect 7 0 13 0;
#X connect 8 0 11 0;
#X connect 9 0 17 0;
#X connect 10 0 3 0;
#X connect 11 0 3 0;
#X connect 12 0 5 0;
#X connect 12 1 3 0;
#X connect 13 0 6 0;
#X connect 13 1 5 1;
#X connect 14 0 13 0;
#X connect 14 1 3 1;
#X connect 15 0 4 0;
#X connect 15 1 7 1;
#X connect 16 0 9 0;
#X connect 16 1 12 0;
#X connect 17 0 7 0;
#X connect 17 1 8 0;
#X connect 17 2 10 0;
#X connect 18 0 21 1;
#X connect 19 0 21 0;
#X connect 19 1 18 0;
#X connect 20 0 1 0;
#X connect 21 0 20 0;
#X restore 187 96 pd packPressureDataConfig;
#X obj 126 39 t b a b;
#X obj 170 129 list trim;
#X obj 163 184 list store;
#X obj 164 247 list prepend;
#X obj 163 214 t l l;
#X obj 210 215 list length;
#X obj 163 156 list store;
#X obj 68 154 list prepend;
#X obj 164 276 list prepend 8;
#X connect 0 0 5 0;
#X connect 2 0 3 0;
#X connect 2 1 4 0;
#X connect 3 0 12 0;
#X connect 3 1 6 0;
#X connect 4 0 12 0;
#X connect 4 1 6 0;
#X connect 5 0 7 0;
#X connect 5 1 2 0;
#X connect 5 2 11 1;
#X connect 5 2 12 1;
#X connect 6 0 2 0;
#X connect 7 0 9 0;
#X connect 8 0 13 0;
#X connect 9 0 8 0;
#X connect 9 1 10 0;
#X connect 10 0 8 1;
#X connect 11 0 7 1;
#X connect 11 0 12 1;
#X connect 12 0 11 0;
#X connect 13 0 1 0;
#X restore 331 31 pd setSensorDataConfig;
#X obj 8 188 t b b;
#X obj 61 261 loadbang;
#X obj 8 304 delay;
#X obj 8 327 metro;
#X obj 40 235 s \$0-netSend;
#X obj 8 132 select 1;
#X text 87 212 request type/name/dataConfig;
#X text 63 351 ping;
#X obj 96 132 outlet;
#X msg 40 212 2 4 7;
#X msg 61 285 1000;
#X obj 18 158 s \$0-connected;
#X connect 0 0 15 0;
#X connect 0 0 26 0;
#X connect 0 1 3 0;
#X connect 1 0 5 1;
#X connect 2 0 5 0;
#X connect 3 0 29 0;
#X connect 3 1 4 0;
#X connect 3 2 11 0;
#X connect 3 3 12 0;
#X connect 3 4 6 0;
#X connect 3 5 7 0;
#X connect 5 0 0 0;
#X connect 8 0 17 0;
#X connect 9 0 19 0;
#X connect 10 0 20 0;
#X connect 13 0 16 0;
#X connect 14 0 0 0;
#X connect 17 0 18 0;
#X connect 19 0 18 0;
#X connect 20 0 18 0;
#X connect 21 0 23 0;
#X connect 21 1 30 0;
#X connect 22 0 31 0;
#X connect 23 0 24 0;
#X connect 24 0 13 0;
#X connect 26 0 21 0;
#X connect 26 0 32 0;
#X connect 26 1 24 0;
#X connect 30 0 25 0;
#X connect 31 0 23 1;
#X connect 31 0 24 1;
